<svg xmlns="http://www.w3.org/2000/svg" width="21" height="16" viewBox="0 0 21 16" fill="none">
  <path opacity="0.2" d="M20.25 12.0001V14.2501C20.25 14.449 20.171 14.6397 20.0303 14.7804C19.8897 14.921 19.6989 15.0001 19.5 15.0001H1.5C1.30109 15.0001 1.11032 14.921 0.96967 14.7804C0.829018 14.6397 0.75 14.449 0.75 14.2501V12.106C0.75 6.71725 5.07656 2.26881 10.4653 2.25006C11.7486 2.2455 13.0202 2.49432 14.2071 2.98226C15.3941 3.4702 16.473 4.18765 17.382 5.09348C18.2911 5.9993 19.0124 7.07568 19.5045 8.26087C19.9967 9.44606 20.25 10.7167 20.25 12.0001Z" fill="#DCD9FD"/>
  <path d="M15 10.8753C15 11.0978 14.934 11.3153 14.8104 11.5004C14.6868 11.6854 14.5111 11.8296 14.3055 11.9147C14.1 11.9999 13.8738 12.0221 13.6555 11.9787C13.4373 11.9353 13.2368 11.8282 13.0795 11.6708C12.9222 11.5135 12.815 11.313 12.7716 11.0948C12.7282 10.8766 12.7505 10.6504 12.8356 10.4448C12.9208 10.2393 13.065 10.0636 13.25 9.93994C13.435 9.81632 13.6525 9.75034 13.875 9.75034C14.1734 9.75034 14.4595 9.86887 14.6705 10.0798C14.8815 10.2908 15 10.577 15 10.8753ZM7.125 9.75034C6.9025 9.75034 6.68499 9.81632 6.49999 9.93994C6.31498 10.0636 6.17079 10.2393 6.08564 10.4448C6.00049 10.6504 5.97821 10.8766 6.02162 11.0948C6.06503 11.313 6.17217 11.5135 6.32951 11.6708C6.48684 11.8282 6.6873 11.9353 6.90553 11.9787C7.12376 12.0221 7.34996 11.9999 7.55552 11.9147C7.76109 11.8296 7.93679 11.6854 8.06041 11.5004C8.18402 11.3153 8.25 11.0978 8.25 10.8753C8.25 10.577 8.13148 10.2908 7.9205 10.0798C7.70952 9.86887 7.42337 9.75034 7.125 9.75034ZM21 12.0003V14.2503C21 14.6482 20.842 15.0297 20.5607 15.311C20.2794 15.5923 19.8978 15.7503 19.5 15.7503H1.5C1.10218 15.7503 0.720649 15.5923 0.439344 15.311C0.15804 15.0297 4.53828e-06 14.6482 4.53828e-06 14.2503V12.1063C-0.00133141 10.6605 0.292299 9.22961 0.862935 7.90119C1.43357 6.57277 2.26922 5.37472 3.31875 4.38034L0.96938 2.03096C0.828649 1.89023 0.749588 1.69936 0.749588 1.50034C0.749588 1.30132 0.828649 1.11044 0.96938 0.969714C1.11011 0.828983 1.30098 0.749922 1.5 0.749922C1.69903 0.749922 1.8899 0.828983 2.03063 0.969714L4.48313 3.42221C6.24402 2.17459 8.34816 1.5031 10.5062 1.50008C12.6643 1.49706 14.7703 2.16265 16.5347 3.40534L18.9722 0.967839C19.1129 0.827108 19.3038 0.748047 19.5028 0.748047C19.7018 0.748047 19.8927 0.827108 20.0334 0.967839C20.1742 1.10857 20.2532 1.29944 20.2532 1.49846C20.2532 1.69749 20.1742 1.88836 20.0334 2.02909L17.7019 4.35971C17.7722 4.42628 17.8425 4.49378 17.9119 4.56315C18.8938 5.53628 19.6725 6.69491 20.2027 7.97168C20.7328 9.24845 21.0039 10.6179 21 12.0003ZM19.5 12.0003C19.5 9.61339 18.5518 7.32421 16.864 5.63638C15.1761 3.94855 12.887 3.00034 10.5 3.00034H10.4681C5.52282 3.01721 1.5 7.1019 1.5 12.1063V14.2503H19.5V12.0003Z" fill="#DCD9FD"/>
</svg>