<svg xmlns="http://www.w3.org/2000/svg" width="24" height="25" viewBox="0 0 24 25" fill="none">
  <path d="M15.796 19.2041C16.0073 19.4154 16.1261 19.7021 16.1261 20.001C16.1261 20.2999 16.0073 20.5865 15.796 20.7978C15.5846 21.0092 15.298 21.1279 14.9991 21.1279C14.7002 21.1279 14.4136 21.0092 14.2022 20.7978L6.70222 13.2978C6.59734 13.1933 6.51413 13.0691 6.45735 12.9324C6.40057 12.7956 6.37134 12.649 6.37134 12.501C6.37134 12.3529 6.40057 12.2063 6.45735 12.0696C6.51413 11.9328 6.59734 11.8086 6.70222 11.7041L14.2022 4.2041C14.4136 3.99276 14.7002 3.87402 14.9991 3.87402C15.298 3.87402 15.5846 3.99276 15.796 4.2041C16.0073 4.41544 16.1261 4.70209 16.1261 5.00097C16.1261 5.29986 16.0073 5.58651 15.796 5.79785L9.09379 12.5L15.796 19.2041Z" fill="#FFFEFC"/>
</svg>