<svg width="109" height="40" viewBox="0 0 109 40" fill="none" xmlns="http://www.w3.org/2000/svg">
<g filter="url(#filter0_ii_750_9970)">
<rect width="109" height="40" rx="20" fill="white" fill-opacity="0.01"/>
<rect x="1" y="1" width="107" height="38" rx="19" stroke="#DCD9FD" stroke-width="2"/>
<path opacity="0.2" d="M36.25 11.75V23.75H31.75V16.25H24.25V11.75H36.25Z" fill="#DCD9FD"/>
<path d="M36.25 11H24.25C24.0511 11 23.8603 11.079 23.7197 11.2197C23.579 11.3603 23.5 11.5511 23.5 11.75V15.5H19.75C19.5511 15.5 19.3603 15.579 19.2197 15.7197C19.079 15.8603 19 16.0511 19 16.25V28.25C19 28.4489 19.079 28.6397 19.2197 28.7803C19.3603 28.921 19.5511 29 19.75 29H31.75C31.9489 29 32.1397 28.921 32.2803 28.7803C32.421 28.6397 32.5 28.4489 32.5 28.25V24.5H36.25C36.4489 24.5 36.6397 24.421 36.7803 24.2803C36.921 24.1397 37 23.9489 37 23.75V11.75C37 11.5511 36.921 11.3603 36.7803 11.2197C36.6397 11.079 36.4489 11 36.25 11ZM31 27.5H20.5V17H31V27.5ZM35.5 23H32.5V16.25C32.5 16.0511 32.421 15.8603 32.2803 15.7197C32.1397 15.579 31.9489 15.5 31.75 15.5H25V12.5H35.5V23Z" fill="#DCD9FD"/>
<path d="M48.7187 19.7C48.7187 18.752 48.8807 17.888 49.2047 17.108C49.5407 16.316 49.9967 15.638 50.5727 15.074C51.1607 14.498 51.8387 14.054 52.6067 13.742C53.3867 13.43 54.2207 13.274 55.1087 13.274C56.3447 13.274 57.4607 13.568 58.4567 14.156C59.4647 14.744 60.2327 15.59 60.7607 16.694L59.0147 17.288C58.7387 16.76 58.3847 16.334 57.9527 16.01C57.5207 15.686 57.0647 15.452 56.5847 15.308C56.1047 15.164 55.6307 15.092 55.1627 15.092C54.3467 15.092 53.6147 15.284 52.9667 15.668C52.3187 16.04 51.8087 16.574 51.4367 17.27C51.0767 17.954 50.8967 18.764 50.8967 19.7C50.8967 20.624 51.0767 21.434 51.4367 22.13C51.8087 22.814 52.3187 23.348 52.9667 23.732C53.6147 24.116 54.3467 24.308 55.1627 24.308C55.6427 24.308 56.1287 24.236 56.6207 24.092C57.1247 23.936 57.5987 23.672 58.0427 23.3C58.4987 22.916 58.8767 22.406 59.1767 21.77L60.9047 22.328C60.3527 23.624 59.5667 24.584 58.5467 25.208C57.5267 25.82 56.3807 26.126 55.1087 26.126C54.2207 26.126 53.3867 25.97 52.6067 25.658C51.8387 25.346 51.1607 24.902 50.5727 24.326C49.9967 23.75 49.5407 23.072 49.2047 22.292C48.8807 21.5 48.7187 20.636 48.7187 19.7ZM66.9837 26.126C66.1197 26.126 65.3457 25.94 64.6617 25.568C63.9777 25.184 63.4437 24.65 63.0597 23.966C62.6757 23.27 62.4837 22.454 62.4837 21.518C62.4837 20.57 62.6817 19.748 63.0777 19.052C63.4737 18.356 64.0197 17.822 64.7157 17.45C65.4117 17.066 66.1857 16.874 67.0377 16.874C67.9017 16.874 68.6757 17.066 69.3597 17.45C70.0557 17.822 70.6077 18.356 71.0157 19.052C71.4237 19.736 71.6277 20.546 71.6277 21.482C71.6277 22.43 71.4177 23.252 70.9977 23.948C70.5897 24.644 70.0317 25.184 69.3237 25.568C68.6277 25.94 67.8477 26.126 66.9837 26.126ZM66.9657 24.308C67.3857 24.308 67.7817 24.206 68.1537 24.002C68.5377 23.798 68.8497 23.492 69.0897 23.084C69.3297 22.664 69.4497 22.13 69.4497 21.482C69.4497 20.858 69.3357 20.342 69.1077 19.934C68.8797 19.514 68.5797 19.202 68.2077 18.998C67.8357 18.794 67.4337 18.692 67.0017 18.692C66.5817 18.692 66.1917 18.794 65.8317 18.998C65.4837 19.202 65.2017 19.514 64.9857 19.934C64.7697 20.342 64.6617 20.87 64.6617 21.518C64.6617 22.142 64.7637 22.664 64.9677 23.084C65.1837 23.492 65.4657 23.798 65.8137 24.002C66.1617 24.206 66.5457 24.308 66.9657 24.308ZM75.3341 24.668L75.5681 24.614V29.6H73.5341V17H75.3701L75.5141 18.116C75.8141 17.768 76.2041 17.474 76.6841 17.234C77.1641 16.994 77.7461 16.874 78.4301 16.874C79.2101 16.874 79.9001 17.066 80.5001 17.45C81.1121 17.834 81.5861 18.374 81.9221 19.07C82.2701 19.754 82.4441 20.564 82.4441 21.5C82.4441 22.424 82.2701 23.234 81.9221 23.93C81.5861 24.626 81.1181 25.166 80.5181 25.55C79.9181 25.934 79.2221 26.126 78.4301 26.126C77.7101 26.126 77.0861 25.988 76.5581 25.712C76.0301 25.424 75.6221 25.076 75.3341 24.668ZM80.2661 21.5C80.2661 20.672 80.0441 20 79.6001 19.484C79.1681 18.968 78.6101 18.71 77.9261 18.71C77.4941 18.71 77.0981 18.818 76.7381 19.034C76.3901 19.25 76.1081 19.562 75.8921 19.97C75.6761 20.378 75.5681 20.888 75.5681 21.5C75.5681 22.1 75.6761 22.61 75.8921 23.03C76.1081 23.438 76.3901 23.75 76.7381 23.966C77.0981 24.182 77.4941 24.29 77.9261 24.29C78.6101 24.29 79.1681 24.032 79.6001 23.516C80.0441 23 80.2661 22.328 80.2661 21.5ZM90.5007 17H92.6427L87.3507 29.6H85.3347L86.9547 25.748L83.4447 17H85.6947L88.0707 23.372L90.5007 17Z" fill="#DCD9FD"/>
</g>
<defs>
<filter id="filter0_ii_750_9970" x="-3" y="-3" width="115" height="46" filterUnits="userSpaceOnUse" color-interpolation-filters="sRGB">
<feFlood flood-opacity="0" result="BackgroundImageFix"/>
<feBlend mode="normal" in="SourceGraphic" in2="BackgroundImageFix" result="shape"/>
<feColorMatrix in="SourceAlpha" type="matrix" values="0 0 0 0 0 0 0 0 0 0 0 0 0 0 0 0 0 0 127 0" result="hardAlpha"/>
<feOffset dx="-3" dy="-3"/>
<feGaussianBlur stdDeviation="2"/>
<feComposite in2="hardAlpha" operator="arithmetic" k2="-1" k3="1"/>
<feColorMatrix type="matrix" values="0 0 0 0 0.495812 0 0 0 0 0.489129 0 0 0 0 0.56932 0 0 0 1 0"/>
<feBlend mode="normal" in2="shape" result="effect1_innerShadow_750_9970"/>
<feColorMatrix in="SourceAlpha" type="matrix" values="0 0 0 0 0 0 0 0 0 0 0 0 0 0 0 0 0 0 127 0" result="hardAlpha"/>
<feOffset dx="3" dy="3"/>
<feGaussianBlur stdDeviation="2"/>
<feComposite in2="hardAlpha" operator="arithmetic" k2="-1" k3="1"/>
<feColorMatrix type="matrix" values="0 0 0 0 0.862745 0 0 0 0 0.85098 0 0 0 0 0.992157 0 0 0 1 0"/>
<feBlend mode="normal" in2="effect1_innerShadow_750_9970" result="effect2_innerShadow_750_9970"/>
</filter>
</defs>
</svg>
