<svg xmlns="http://www.w3.org/2000/svg" width="25" height="24" viewBox="0 0 25 24" fill="none">
  <path opacity="0.2" d="M23.5 1V17H17.5V7H7.5V1H23.5Z" fill="#DCD9FD"/>
  <path d="M23.5 0H7.5C7.23478 0 6.98043 0.105357 6.79289 0.292893C6.60536 0.48043 6.5 0.734784 6.5 1V6H1.5C1.23478 6 0.98043 6.10536 0.792893 6.29289C0.605357 6.48043 0.5 6.73478 0.5 7V23C0.5 23.2652 0.605357 23.5196 0.792893 23.7071C0.98043 23.8946 1.23478 24 1.5 24H17.5C17.7652 24 18.0196 23.8946 18.2071 23.7071C18.3946 23.5196 18.5 23.2652 18.5 23V18H23.5C23.7652 18 24.0196 17.8946 24.2071 17.7071C24.3946 17.5196 24.5 17.2652 24.5 17V1C24.5 0.734784 24.3946 0.48043 24.2071 0.292893C24.0196 0.105357 23.7652 0 23.5 0ZM16.5 22H2.5V8H16.5V22ZM22.5 16H18.5V7C18.5 6.73478 18.3946 6.48043 18.2071 6.29289C18.0196 6.10536 17.7652 6 17.5 6H8.5V2H22.5V16Z" fill="#DCD9FD"/>
</svg>