<svg xmlns="http://www.w3.org/2000/svg" width="20" height="21" viewBox="0 0 20 21" fill="none">
  <path opacity="0.2" d="M19.2501 16.1977C17.6761 15.1168 17.0001 13.3036 17.0001 11.2496C17.0001 9.53396 18.0951 7.98615 19.2501 6.89209C18.1748 5.87396 16.3439 5.24959 14.7501 5.24959C13.387 5.24642 12.0638 5.70955 11.0001 6.56209C9.95869 5.72698 8.66747 5.26488 7.33263 5.24959C3.87513 5.20271 1.16201 8.09021 1.25013 11.5486C1.28778 13.0313 1.61912 14.4917 2.225 15.8453C2.83087 17.199 3.69924 18.4191 4.77982 19.4349C5.33686 19.9588 6.07293 20.2502 6.83763 20.2496H15.0595C15.4679 20.2513 15.8722 20.1689 16.2473 20.0076C16.6225 19.8463 16.9604 19.6096 17.2401 19.3121C18.7261 17.7183 19.2501 16.1996 19.2501 16.1996V16.1977Z" fill="#DCD9FD"/>
  <path d="M19.9348 15.8991C19.8786 15.7705 19.7877 15.6602 19.6723 15.5803C18.0814 14.4872 17.7505 12.6225 17.7505 11.25C17.7505 9.59344 19.0133 8.15063 19.7661 7.43719C19.8401 7.3671 19.8991 7.28265 19.9394 7.189C19.9797 7.09535 20.0005 6.99446 20.0005 6.8925C20.0005 6.79054 19.9797 6.68966 19.9394 6.59601C19.8991 6.50235 19.8401 6.4179 19.7661 6.34781C18.5773 5.22563 16.6086 4.5 14.7505 4.5C13.4157 4.50119 12.1111 4.89683 11.0005 5.63719C9.70494 4.76847 8.1472 4.37832 6.59516 4.53385C5.04311 4.68938 3.59377 5.38086 2.49639 6.48938C1.84036 7.15912 1.32563 7.95387 0.982753 8.82643C0.639881 9.69899 0.475867 10.6316 0.500454 11.5688C0.537257 13.1506 0.889003 14.7093 1.53513 16.1537C2.18126 17.5981 3.10882 18.8992 4.26358 19.9809C4.95902 20.638 5.88028 21.0028 6.83702 21H15.057C15.5685 21.001 16.0747 20.8969 16.5443 20.6942C17.0139 20.4915 17.4369 20.1945 17.787 19.8216C18.4356 19.1236 18.9966 18.3491 19.4576 17.5153C20.1158 16.3125 20.0314 16.125 19.9348 15.8991ZM16.6883 18.7997C16.4789 19.022 16.226 19.1989 15.9454 19.3194C15.6648 19.4398 15.3624 19.5013 15.057 19.5H6.83702C6.26399 19.5018 5.71218 19.2833 5.29577 18.8897C4.28521 17.9436 3.47332 16.8056 2.90752 15.5421C2.34172 14.2787 2.03336 12.9152 2.00045 11.5313C1.97994 10.7959 2.10757 10.064 2.37573 9.37903C2.64389 8.69405 3.04711 8.07002 3.56139 7.54406C4.04185 7.05314 4.61587 6.66355 5.24951 6.39834C5.88316 6.13313 6.56355 5.99768 7.25045 6H7.32358C8.49195 6.01231 9.6221 6.41787 10.5317 7.15125C10.6647 7.25775 10.83 7.31578 11.0005 7.31578C11.1709 7.31578 11.3362 7.25775 11.4692 7.15125C12.3982 6.40188 13.5569 5.99533 14.7505 6C15.9423 6.01383 17.1083 6.34906 18.1255 6.97031C16.9067 8.33156 16.2505 9.82688 16.2505 11.25C16.2505 13.4784 16.9667 15.2559 18.3298 16.4344C17.9009 17.2987 17.3479 18.0955 16.6883 18.7997ZM11.022 2.8125C11.23 2.00692 11.7 1.29338 12.358 0.784213C13.016 0.275046 13.8247 -0.000833469 14.6567 1.89152e-06H14.7505C14.9494 1.89152e-06 15.1401 0.0790195 15.2808 0.219672C15.4214 0.360324 15.5005 0.55109 15.5005 0.750002C15.5005 0.948914 15.4214 1.13968 15.2808 1.28033C15.1401 1.42098 14.9494 1.5 14.7505 1.5H14.6567C14.1579 1.49996 13.6731 1.6657 13.2787 1.97116C12.8844 2.27662 12.6027 2.70449 12.478 3.1875C12.4282 3.3802 12.304 3.54525 12.1326 3.64634C11.9611 3.74744 11.7566 3.77629 11.5639 3.72656C11.3712 3.67684 11.2061 3.5526 11.1051 3.38118C11.004 3.20976 10.9751 3.0052 11.0248 2.8125H11.022Z" fill="#DCD9FD"/>
</svg>