<svg xmlns="http://www.w3.org/2000/svg" width="28" height="25" viewBox="0 0 28 25" fill="none">
  <path opacity="0.2" d="M26.9262 1.01119L9 13.8587L1.625 12.4124C1.45985 12.379 1.31002 12.2928 1.19799 12.1669C1.08596 12.0411 1.01779 11.8822 1.0037 11.7143C0.989616 11.5464 1.03038 11.3784 1.11986 11.2357C1.20935 11.0929 1.34274 10.983 1.5 10.9224L26.8287 1.00869C26.8443 1.00255 26.861 0.999612 26.8778 1.00004C26.8945 1.00047 26.911 1.00426 26.9262 1.01119ZM9 21.9999C8.99979 22.1994 9.05923 22.3943 9.17066 22.5597C9.2821 22.7251 9.44045 22.8534 9.62536 22.9281C9.81027 23.0029 10.0133 23.0206 10.2084 22.979C10.4034 22.9375 10.5816 22.8385 10.72 22.6949L14.5462 18.7249L9 13.8587V21.9999Z" fill="#DCD9FD"/>
  <path d="M27.6098 0.27352C27.4549 0.139731 27.2664 0.0507517 27.0646 0.0161696C26.8629 -0.0184126 26.6555 0.00271312 26.4648 0.0772705L1.13233 9.99102C0.773309 10.1306 0.469357 10.3831 0.266233 10.7104C0.0631092 11.0377 -0.0281934 11.4221 0.00607134 11.8058C0.040336 12.1895 0.198313 12.5516 0.45622 12.8378C0.714126 13.1239 1.058 13.3185 1.43608 13.3923L7.99983 14.681V21.9998C7.99854 22.3984 8.117 22.7883 8.33988 23.1188C8.56276 23.4493 8.87977 23.7053 9.24983 23.8535C9.61932 24.0044 10.0257 24.0406 10.416 23.9575C10.8064 23.8743 11.1627 23.6756 11.4386 23.3873L14.6036 20.1048L19.6248 24.4998C19.9871 24.8211 20.4543 24.9989 20.9386 24.9998C21.1508 24.9996 21.3617 24.9663 21.5636 24.901C21.8935 24.7963 22.1903 24.607 22.4243 24.352C22.6583 24.0969 22.8214 23.785 22.8973 23.4473L27.9711 1.37477C28.0165 1.17571 28.0068 0.968046 27.9432 0.774046C27.8795 0.580046 27.7643 0.407022 27.6098 0.27352ZM8.76858 12.7935L2.56733 11.5773L19.9673 4.76727L8.76858 12.7935ZM9.99983 21.9998V16.0648L13.0986 18.7823L9.99983 21.9998ZM20.9411 22.9998L10.6061 13.9373L25.4811 3.27602L20.9411 22.9998Z" fill="#DCD9FD"/>
</svg>