<svg xmlns="http://www.w3.org/2000/svg" width="18" height="20" viewBox="0 0 18 20" fill="none">
  <path opacity="0.2" d="M17.25 2.25V7.5C17.25 16.5 9 18.75 9 18.75C9 18.75 0.75 16.5 0.75 7.5V2.25C0.75 2.05109 0.829018 1.86032 0.96967 1.71967C1.11032 1.57902 1.30109 1.5 1.5 1.5H16.5C16.6989 1.5 16.8897 1.57902 17.0303 1.71967C17.171 1.86032 17.25 2.05109 17.25 2.25Z" fill="#FFFEFC"/>
  <path d="M8.25 9.75V6C8.25 5.80109 8.32902 5.61032 8.46967 5.46967C8.61032 5.32902 8.80109 5.25 9 5.25C9.19891 5.25 9.38968 5.32902 9.53033 5.46967C9.67098 5.61032 9.75 5.80109 9.75 6V9.75C9.75 9.94891 9.67098 10.1397 9.53033 10.2803C9.38968 10.421 9.19891 10.5 9 10.5C8.80109 10.5 8.61032 10.421 8.46967 10.2803C8.32902 10.1397 8.25 9.94891 8.25 9.75ZM9 14.25C9.2225 14.25 9.44001 14.184 9.62502 14.0604C9.81002 13.9368 9.95422 13.7611 10.0394 13.5555C10.1245 13.35 10.1468 13.1238 10.1034 12.9055C10.06 12.6873 9.95283 12.4868 9.79549 12.3295C9.63816 12.1722 9.43771 12.065 9.21948 12.0216C9.00125 11.9782 8.77505 12.0005 8.56948 12.0856C8.36391 12.1708 8.18821 12.315 8.0646 12.5C7.94098 12.685 7.875 12.9025 7.875 13.125C7.875 13.4234 7.99353 13.7095 8.2045 13.9205C8.41548 14.1315 8.70163 14.25 9 14.25ZM18 2.25V7.5C18 12.4425 15.6075 15.4378 13.6003 17.0803C11.4384 18.8484 9.28781 19.4494 9.19406 19.4738C9.06516 19.5088 8.92922 19.5088 8.80031 19.4738C8.70656 19.4494 6.55875 18.8484 4.39406 17.0803C2.3925 15.4378 0 12.4425 0 7.5V2.25C0 1.85218 0.158035 1.47064 0.43934 1.18934C0.720644 0.908035 1.10218 0.75 1.5 0.75H16.5C16.8978 0.75 17.2794 0.908035 17.5607 1.18934C17.842 1.47064 18 1.85218 18 2.25ZM16.5 2.25H1.5V7.5C1.5 10.9969 2.79562 13.8291 5.35031 15.9197C6.4381 16.8092 7.67334 17.5012 9 17.9644C10.3443 17.4931 11.595 16.7886 12.6947 15.8831C15.2194 13.7962 16.5 10.9753 16.5 7.5V2.25Z" fill="#FFFEFC"/>
</svg>