<svg xmlns="http://www.w3.org/2000/svg" width="104" height="56" viewBox="0 0 104 56" fill="none">
  <path d="M56.0836 2.20144C56.6487 1.95506 62.8679 -0.00158079 63.2821 0.00195792C63.7005 0.00549662 64.1472 0.119444 64.5608 0.188537C65.5095 0.348663 66.457 0.515719 67.4033 0.689705C69.4462 1.05163 71.5414 1.34145 73.5513 1.85783C75.2627 3.65502 76.9408 5.48267 78.5858 7.34079C79.1612 7.9945 79.7411 8.64409 80.3258 9.28955C80.643 9.64289 80.9443 10.0321 81.3029 10.3442C81.4107 11.3119 81.6057 12.2767 81.7562 13.239C82.0989 15.4321 82.4483 17.6176 82.7534 19.8166C82.859 20.5775 83.135 21.7693 83.0978 22.5037C83.0832 22.7889 82.8955 23.107 82.7581 23.3535C81.5719 25.4814 80.1679 27.51 78.8887 29.5836L76.6867 33.0946C76.2211 33.8397 75.7894 34.6526 75.2358 35.3347C74.7258 35.963 74.1362 36.5455 73.582 37.1354C72.5301 38.2549 71.4694 39.3674 70.4307 40.4991L66.8823 44.3025C66.2868 44.9462 65.7305 45.7024 65.0677 46.2721C64.192 47.0249 63.1917 47.6807 62.2707 48.3837L56.0986 53.0877C55.295 53.6957 54.4879 54.3087 53.715 54.9552C53.3889 55.228 52.9374 55.7359 52.6057 55.9298C52.3622 55.8675 51.6234 55.151 51.3704 54.9502C50.2595 54.0682 49.0889 53.2454 47.9466 52.4031L42.9252 48.6592C42.0414 48.0078 41.105 47.4202 40.2598 46.7185C39.1353 45.7851 38.083 44.716 37.0498 43.6827C35.8419 42.4837 34.6425 41.2763 33.4515 40.0606L31.3724 37.9845C30.9244 37.5412 30.4577 37.1159 30.0588 36.6261C29.5898 36.0503 29.186 35.3978 28.7628 34.7862L26.292 31.1832C24.9402 29.2196 23.6077 27.243 22.2945 25.2534C21.8834 24.6236 21.4325 24.0008 21.0462 23.3574C21.0395 23.3463 21.0332 23.3349 21.0267 23.3236C20.9926 22.4586 21.1736 21.5349 21.2827 20.6741C21.468 19.121 21.6765 17.5709 21.9083 16.024C22.142 14.3898 22.2671 12.7033 22.5947 11.0876C24.333 9.19047 26.1267 7.34079 27.8739 5.45094L29.9246 3.22554C30.2718 2.84911 30.6143 2.42942 30.9917 2.08431C31.5588 1.94143 32.1531 1.87314 32.7305 1.78131L35.4414 1.34268C36.823 1.11361 38.2059 0.893151 39.5903 0.681301C40.0997 0.601238 40.7181 0.408998 41.2287 0.45102C41.9451 0.509939 42.7116 0.788878 43.4136 0.955108C45.0135 1.3341 46.6128 1.68452 48.2014 2.1112C48.8465 2.73985 49.4147 3.51014 49.9897 4.20497C50.88 5.28064 51.7878 6.34845 52.652 7.44483C53.1784 6.59235 53.6875 5.72811 54.2785 4.91766C54.8924 4.02821 55.5356 3.13309 56.0836 2.20144Z" fill="#40464D"/>
  <path d="M52.5869 35.0371C53.0807 34.93 53.579 34.8646 54.079 34.7959C53.8 35.1057 53.4722 35.3666 53.1927 35.6753C52.9818 35.4696 52.7832 35.2566 52.5869 35.0371Z" fill="#FBEDE0"/>
  <path d="M55.0611 6.29688C55.2864 6.65756 55.4473 7.04266 55.6893 7.39653C54.874 7.50596 54.0448 7.57134 53.2266 7.66679C53.8132 7.17674 54.4247 6.7201 55.0611 6.29688Z" fill="#FBEDE0"/>
  <path d="M54.4905 5.11035C54.7367 5.4276 55.1156 5.44856 55.4096 5.68787C54.5905 6.25663 53.7469 6.84387 52.9863 7.48942C53.4176 6.67021 53.9674 5.87471 54.4905 5.11035Z" fill="#FBEDE0"/>
  <path d="M63.5215 0.314453C64.6937 0.497463 65.8643 0.690382 67.0333 0.893209C66.449 1.22319 65.8869 1.68703 65.2843 1.96482C64.6676 1.45993 64.0945 0.869499 63.5215 0.314453Z" fill="#FBEDE0"/>
  <path d="M53.0674 7.9806C53.969 7.9154 54.8715 7.77049 55.7695 7.66406C55.8968 8.14736 56.2084 8.99718 56.4664 9.41661L56.3911 9.48614C56.1222 9.53453 55.9439 9.66812 55.7365 9.8393C54.8582 9.20685 53.9726 8.57395 53.0674 7.9806Z" fill="#FBEDE0"/>
  <path d="M32.1109 32.498L32.116 32.5635L32.1347 32.6266C32.4097 32.7196 38.818 33.4231 38.9188 33.4033C38.9996 33.6547 38.9836 33.9997 39.0007 34.2629C37.875 34.0237 31.6163 33.0949 31.1006 32.6929C31.4444 32.6968 31.785 32.5997 32.1109 32.498Z" fill="#FBEDE0"/>
  <path d="M81.9243 16.0078C82.1306 17.2068 82.2661 18.4131 82.4393 19.6166C82.5646 20.4866 82.7486 21.364 82.7916 22.2425C82.0322 21.4205 81.4461 20.4741 80.752 19.6053C80.8001 19.2772 81.0237 18.9048 81.1536 18.5926C81.3741 18.0625 81.555 17.5409 81.6578 16.9751C81.7054 16.713 81.7263 16.1901 81.9243 16.0078Z" fill="#FBEDE0"/>
  <path d="M40.29 36.4146L40.3582 36.3975C41.3019 37.4184 42.2185 38.4853 43.1192 39.5446C43.5751 40.0808 44.0888 40.6194 44.4846 41.2003C43.9924 41.6016 43.5038 42.0072 43.0187 42.4172C42.7709 41.8794 42.5621 41.3241 42.3098 40.7875C41.6278 39.3361 40.8979 37.8992 40.29 36.4146Z" fill="#FBEDE0"/>
  <path d="M68.2635 19.8408C68.4443 20.1881 68.5782 20.5718 68.732 20.9325C69.0451 21.6504 69.3484 22.3724 69.6419 23.0985C69.4862 23.4929 69.0786 23.8074 68.7748 24.0958C68.8032 25.0111 68.27 26.1505 67.6496 26.8113C67.5172 26.9522 67.3849 27.0661 67.1846 27.0813C67.6701 24.6853 67.8321 22.2439 68.2635 19.8408Z" fill="#FBEDE0"/>
  <path d="M78.4569 17.3438C78.8096 17.5048 80.2052 19.4418 80.5871 19.8744C79.8421 20.6022 79.0519 21.2671 78.2715 21.9556C77.9054 22.2785 77.5322 22.6812 77.127 22.9472C77.5971 21.0858 78.0116 19.2112 78.4569 17.3438Z" fill="#FBEDE0"/>
  <path d="M38.3389 39.1074C38.9632 39.5453 39.5381 40.079 40.1293 40.5617C40.6601 40.9951 41.228 41.4002 41.7403 41.8538C42.0898 42.1259 42.4349 42.409 42.7982 42.6626C42.615 42.9792 42.419 43.2807 42.2108 43.5814C41.8784 44.1091 41.5251 44.7655 41.0976 45.2103C40.4555 44.6823 40.0115 43.0034 39.6686 42.231C39.224 41.2294 38.5916 40.1794 38.3389 39.1074Z" fill="#FBEDE0"/>
  <path d="M52.6484 34.7118C53.8159 33.6596 54.9346 32.5511 56.0662 31.4607C57.685 29.9144 59.28 28.3439 60.851 26.749C60.9179 27.1058 61.1354 27.4673 61.2942 27.7939C60.4434 28.6512 59.5703 29.4852 58.6751 30.2959C57.6989 31.1833 54.8871 33.304 54.5393 34.4316C53.9174 34.4714 53.2723 34.6407 52.6484 34.7118Z" fill="#FBEDE0"/>
  <path d="M37.5371 19.1225C39.2285 19.0956 41.0687 18.9762 42.7593 18.8594C42.2772 19.7797 41.7693 20.7083 41.3977 21.6796C41.2499 22.0658 41.1609 22.4635 41.0328 22.8545C39.8806 21.5982 38.6836 20.3854 37.5371 19.1225Z" fill="#FBEDE0"/>
  <path d="M69.6425 23.0986L69.8742 23.6182L71.1577 26.3669C70.7727 26.7879 70.4104 27.2882 69.9847 27.6636C69.2259 27.8105 68.4488 27.933 67.6795 28.0099C67.5095 28.1312 67.2427 28.0846 67.0446 28.0591C67.0058 28.1788 66.9727 28.1887 67.029 28.3074C67.1655 28.3486 67.2842 28.3279 67.4224 28.3114L67.4656 28.3613C67.2816 28.4214 67.0704 28.3974 66.8789 28.3892C67.0116 27.9634 67.1085 27.5203 67.1851 27.0814C67.3855 27.0662 67.5177 26.9524 67.6501 26.8114C68.2705 26.1507 68.8037 25.0113 68.7753 24.0959C69.0791 23.8076 69.4868 23.493 69.6425 23.0986Z" fill="#FBEDE0"/>
  <path d="M69.6425 23.0986L69.8742 23.6182C69.4017 24.0386 69.1143 25.1058 68.8352 25.694C68.455 26.495 67.8374 27.4307 67.1626 28.0127C67.3297 28.0063 67.5153 27.9813 67.6795 28.0099C67.5095 28.1312 67.2427 28.0846 67.0446 28.0591C67.0058 28.1788 66.9727 28.1887 67.029 28.3074C67.1655 28.3486 67.2842 28.3279 67.4224 28.3114L67.4656 28.3613C67.2816 28.4214 67.0704 28.3974 66.8789 28.3892C67.0116 27.9634 67.1085 27.5203 67.1851 27.0814C67.3855 27.0662 67.5177 26.9524 67.6501 26.8114C68.2705 26.1507 68.8037 25.0113 68.7753 24.0959C69.0791 23.8076 69.4868 23.493 69.6425 23.0986Z" fill="#FBEDE0"/>
  <path d="M51.9873 47.9831C52.3838 47.7025 52.8285 47.4767 53.2448 47.2247C53.9516 46.7969 54.6481 46.3537 55.3602 45.9346C55.0716 46.4417 54.7981 46.9513 54.5944 47.4998C54.2145 48.5234 52.4779 54.4753 52.7279 55.2562C52.7361 55.282 52.7499 55.3057 52.7609 55.3304C52.7371 55.3968 52.7035 55.4395 52.6626 55.4963C52.4765 55.1553 52.0371 48.9582 51.9873 47.9831Z" fill="#FBEDE0"/>
  <path d="M56.3374 2.41015C56.9983 2.15819 57.6873 1.9617 58.362 1.74956L62.5342 0.461914C61.6445 1.0803 60.7863 1.74372 59.9123 2.38414L55.4094 5.68778C55.1153 5.44848 54.7365 5.42751 54.4902 5.11027C55.0851 4.22196 55.6614 3.23502 56.3374 2.41015Z" fill="#FBEDE0"/>
  <path d="M64.168 23.4595C64.9232 22.6934 65.6757 21.921 66.4537 21.1779C66.9678 20.6869 67.5208 20.2279 68.0169 19.7197C67.6628 21.9388 67.4264 24.1732 67.0347 26.3855C66.6308 25.9923 66.2196 25.6018 65.8344 25.1902C65.2822 24.6003 64.7732 23.9994 64.168 23.4595Z" fill="#FBEDE0"/>
  <path d="M66.4268 17.8417C66.439 17.206 66.8599 15.611 67.0436 14.9404C67.3174 13.9416 67.6986 12.9751 68.0056 11.9868C68.429 10.6232 68.7777 9.21588 69.2771 7.8779C69.335 7.7229 69.3871 7.58251 69.5077 7.46484C69.219 9.40892 68.8505 11.3358 68.64 13.2916C68.4337 15.2065 68.3865 17.167 68.0872 19.0692C67.5082 18.6993 66.9716 18.2599 66.4268 17.8417Z" fill="#FBEDE0"/>
  <path d="M37.46 19.4658C38.1061 20.1708 38.7574 20.871 39.414 21.5662C40.0246 22.2033 40.6621 22.8256 41.2334 23.4983C40.6326 24.2363 39.8593 24.8493 39.1499 25.4805C38.8733 25.7265 38.5963 26.0272 38.2931 26.2346C37.9392 23.9912 37.7585 21.7172 37.46 19.4658Z" fill="#FBEDE0"/>
  <path d="M41.8672 0.886719C42.3998 0.923787 43.0057 1.13522 43.5291 1.2574C45.0424 1.61186 46.5518 1.98242 48.0573 2.36908C48.5729 2.91245 49.0406 3.53102 49.5217 4.10694C50.4024 5.14543 51.2651 6.1987 52.1097 7.26674C51.5624 7.08167 49.7708 5.7612 49.1376 5.35946C46.7374 3.83068 44.314 2.33977 41.8672 0.886719Z" fill="#FBEDE0"/>
  <path d="M58.0875 40.5381C58.3849 40.8182 58.6864 41.0938 58.9919 41.3649C59.3939 41.7183 59.8118 42.0703 60.1654 42.4731C59.4068 42.9991 58.6175 43.4798 57.8494 43.9917C57.1825 44.4361 56.5045 44.951 55.7962 45.321C55.4015 45.6034 52.2777 47.5673 52.0084 47.5342L51.9736 47.4358C52.397 47.0484 53.7017 45.3728 54.1134 45.2709C54.5322 45.1674 54.7752 44.839 55.0738 44.5422C55.4985 44.1201 55.9462 43.6954 56.2979 43.2088C56.7576 42.573 57.5592 40.9145 58.0875 40.5381Z" fill="#FBEDE0"/>
  <path d="M71.1574 26.3672C71.393 26.8312 71.5676 27.3225 71.8004 27.7863C71.3658 28.0675 70.9673 28.4411 70.5688 28.7732C69.8595 29.3581 69.1576 29.9518 68.463 30.5543C67.5818 31.3145 66.5 32.1634 65.6777 32.9517L66.1552 31.1914C66.3911 30.2563 66.6623 29.3294 66.8786 28.3895C67.0701 28.3977 67.2813 28.4217 67.4653 28.3616L67.4221 28.3117C67.2839 28.3282 67.1652 28.3489 67.0287 28.3077C66.9724 28.189 67.0055 28.1791 67.0443 28.0594C67.2424 28.0849 67.5092 28.1315 67.6792 28.0102C68.4485 27.9333 69.2256 27.8108 69.9844 27.6639C70.4101 27.2885 70.7724 26.7882 71.1574 26.3672Z" fill="#FBEDE0"/>
  <path d="M67.4654 28.3618C68.1227 28.3227 68.7668 28.2445 69.4267 28.2792C68.9045 28.7091 66.5887 31.1416 66.2557 31.2323L66.1553 31.1916C66.3911 30.2565 66.6624 29.3295 66.8787 28.3897C67.0702 28.3979 67.2814 28.4219 67.4654 28.3618Z" fill="#FBEDE0"/>
  <path d="M82.0639 23.7979L82.0844 23.8231C82.0123 24.2968 75.9021 33.6783 75.1498 35.0198C75.0612 34.8734 74.9832 34.7216 74.9039 34.57C74.6047 33.9523 74.4184 33.3402 74.2871 32.6681C75.5259 31.3513 76.6818 29.947 77.855 28.5715C79.2354 26.9604 80.6384 25.3692 82.0639 23.7979Z" fill="#FBEDE0"/>
  <path d="M59.2305 33.6769C59.2545 33.5565 59.2939 33.5039 59.3855 33.423C59.9494 32.925 60.6713 32.5374 61.3034 32.1293C62.5309 31.3367 63.7779 30.5501 64.986 29.7297C65.4156 29.4381 65.7931 29.0887 66.2127 28.7898C66.3334 28.7038 66.3883 28.6737 66.534 28.6992L65.7472 31.6463C65.6091 32.1379 65.4702 32.6271 65.3069 33.1112C64.905 33.1313 64.5033 33.1544 64.1018 33.1805C62.4846 33.3462 60.8506 33.5653 59.2305 33.6769Z" fill="#FBEDE0"/>
  <path d="M73.988 32.9453C74.0923 33.1698 74.152 33.4255 74.2352 33.6604C74.4296 34.2093 74.6576 34.7205 74.9588 35.2189C74.1686 36.1501 73.2911 37.0212 72.4529 37.9099L68.9307 41.6978C68.1853 42.494 67.4122 43.2647 66.6874 44.0798C66.4999 44.2996 66.3014 44.5091 66.1045 44.7202C67.7188 42.1259 69.4748 39.5831 71.2129 37.07L72.8207 34.7466C73.2273 34.1586 73.6517 33.5774 73.988 32.9453Z" fill="#FBEDE0"/>
  <path d="M78.6067 17.0431C78.5078 16.4688 80.7251 11.7427 81.1297 10.7715C81.3631 12.5261 81.6681 14.259 81.9247 16.0077C81.7267 16.1899 81.7057 16.7129 81.6582 16.975C81.5554 17.5408 81.3745 18.0624 81.154 18.5925C81.0241 18.9047 80.8005 19.2771 80.7523 19.6052C80.2876 19.0583 79.8294 18.5059 79.3778 17.9481C79.1381 17.6533 78.8966 17.287 78.6067 17.0431Z" fill="#FBEDE0"/>
  <path d="M52.5237 35.3496C52.745 35.5928 52.9685 35.8339 53.1944 36.0729L53.5094 36.3886L53.7312 36.6211C54.1602 37.7319 53.8519 40.8276 53.8074 42.1432C53.7832 42.9375 53.7822 43.7317 53.8045 44.526C53.3622 45.0734 52.4664 46.3089 51.9883 46.7149C52.0706 43.3116 52.2418 39.9129 52.5017 36.5186C52.5268 36.1308 52.5196 35.7382 52.5237 35.3496Z" fill="#FBEDE0"/>
  <path d="M53.194 36.0732L53.5091 36.3889C53.3305 36.4252 52.9222 36.5835 52.7681 36.5387L52.7021 36.4795L53.194 36.0732Z" fill="#FBEDE0"/>
  <path d="M48.749 45.7229C48.8439 45.2561 49.0955 44.7882 49.2663 44.3423C49.4964 43.742 49.6933 43.1291 49.9327 42.5323C50.217 41.8237 50.5403 41.1307 50.8183 40.4197C51.0365 39.8614 51.6495 37.845 51.9288 37.5401C52.0072 37.4546 52.031 37.4571 52.1364 37.4618L51.8445 42.9897C51.7813 44.4587 51.7734 45.9387 51.6861 47.4051C50.6875 46.8789 49.7555 46.2359 48.749 45.7229Z" fill="#FBEDE0"/>
  <path d="M71.9795 27.4921C72.5356 26.9337 76.2056 23.6896 76.6422 23.5771C76.1346 25.6998 75.436 27.792 74.7876 29.8753C74.5366 30.6817 74.3784 31.5495 74.062 32.329C73.3752 30.7136 72.7278 29.081 71.9795 27.4921Z" fill="#FBEDE0"/>
  <path d="M30.827 33.2979C31.2432 33.8217 31.5927 34.4223 31.9773 34.9718L35.1835 39.5996C36.5638 41.563 38.1364 43.4301 39.384 45.4805L39.0136 45.1844C38.1327 44.5046 37.3764 43.5784 36.5864 42.7923C34.4801 40.6963 32.4177 38.5507 30.2803 36.4869C30.442 35.4218 30.6454 34.3601 30.827 33.2979Z" fill="#FBEDE0"/>
  <path d="M22.0146 24.3115C22.3437 24.4654 30.0702 32.2088 30.5977 32.8596C30.4719 33.7669 30.3139 34.6685 30.1237 35.5644L30.05 36.0872C28.6842 34.3534 27.5086 32.4362 26.2646 30.6118C24.8436 28.5279 23.3266 26.466 22.0146 24.3115Z" fill="#FBEDE0"/>
  <path d="M39.4141 34.5762C39.7766 34.5841 40.1371 34.5918 40.4983 34.6257C41.6009 34.6267 42.7053 34.7074 43.8063 34.7636C46.4761 34.9002 49.1538 35.087 51.828 35.0765C50.9909 35.8199 50.1265 36.5327 49.2858 37.2725C49.1455 37.3861 49.0061 37.5146 48.8555 37.6135C48.5862 37.4215 47.852 37.313 47.5027 37.2169C46.1167 36.8358 44.7323 36.4381 43.3373 36.0914C42.1667 35.8005 41.2315 35.6909 40.084 35.2197L40.0193 35.176C39.8878 35.0885 39.8169 35.0466 39.6574 35.0778C39.5617 34.9273 39.4919 34.7381 39.4141 34.5762Z" fill="#FBEDE0"/>
  <path d="M39.4141 34.5762C39.7766 34.5841 40.1371 34.5918 40.4983 34.6257C40.382 34.6324 40.2243 34.6242 40.1156 34.6595C40.9971 35.0442 42.2857 35.2299 43.2393 35.4651C44.0318 35.6606 44.7904 36.0139 45.5787 36.2404C46.7276 36.5705 48.2113 36.838 49.2858 37.2725C49.1455 37.3861 49.0061 37.5146 48.8555 37.6135C48.5862 37.4215 47.852 37.313 47.5027 37.2169C46.1167 36.8358 44.7323 36.4381 43.3373 36.0914C42.1667 35.8005 41.2315 35.6909 40.084 35.2197L40.0193 35.176C39.8878 35.0885 39.8169 35.0466 39.6574 35.0778C39.5617 34.9273 39.4919 34.7381 39.4141 34.5762Z" fill="#FBEDE0"/>
  <path d="M63.7733 33.5121C64.2353 33.4327 64.7107 33.3998 65.1783 33.3701C64.97 33.7717 64.753 34.1685 64.5273 34.5605C63.856 35.8507 63.2037 37.148 62.5036 38.4229C61.7966 39.7106 61.0416 40.9728 60.37 42.2798C60.0121 41.9436 59.6587 41.5804 59.2817 41.267L58.1826 40.2828C58.9923 39.3089 59.8871 38.4068 60.7441 37.4754C61.3313 36.8373 61.8718 36.1346 62.5204 35.5578C62.8717 35.2454 63.247 34.9971 63.6488 34.7545C63.642 34.6302 63.6512 34.5737 63.5731 34.4714C63.4789 34.348 63.3263 34.3292 63.1833 34.3126L63.1578 34.3431C62.7662 34.3396 62.3747 34.2693 61.9818 34.2563C61.4334 34.2381 60.8857 34.2855 60.3362 34.2618C60.0912 34.2513 59.4932 34.269 59.321 34.0824L59.3309 33.9667C60.8097 33.795 62.2905 33.6435 63.7733 33.5121Z" fill="#FBEDE0"/>
  <path d="M71.7999 27.7861C72.2607 28.8334 72.7126 29.8844 73.1556 30.9391C73.3747 31.454 73.569 32.0138 73.8377 32.5034C71.9575 32.6682 70.0751 32.8029 68.1905 32.9074C67.3712 32.9576 66.5465 33.0523 65.727 33.0777L65.6719 33.0213L65.6773 32.9516C66.4995 32.1632 67.5814 31.3143 68.4626 30.5541C69.1571 29.9516 69.859 29.358 70.5684 28.7731C70.9668 28.441 71.3654 28.0674 71.7999 27.7861Z" fill="#FBEDE0"/>
  <path d="M67.0332 0.892578C69.0734 1.25786 71.1539 1.57024 73.1677 2.06035C72.1072 3.4554 70.9153 4.76374 69.8016 6.11765C68.2885 4.74039 66.8129 3.32473 65.2842 1.96419C65.8868 1.6864 66.4489 1.22256 67.0332 0.892578Z" fill="#FBEDE0"/>
  <path d="M53.731 36.6211C54.0419 36.876 54.3881 37.1581 54.658 37.4562C55.6811 38.3563 56.7257 39.2672 57.7153 40.2027L58.0877 40.5382C57.5595 40.9146 56.7579 42.5731 56.2982 43.2089C55.9464 43.6955 55.4988 44.1202 55.0741 44.5423C54.7755 44.8391 54.5325 45.1675 54.1136 45.271C53.7019 45.3728 52.3972 47.0485 51.9739 47.4359C51.9718 47.1962 51.983 46.9546 51.9881 46.7149C52.4662 46.3089 53.362 45.0734 53.8044 44.526C53.7821 43.7317 53.783 42.9374 53.8072 42.1432C53.8518 40.8276 54.1601 37.7319 53.731 36.6211Z" fill="#FBEDE0"/>
  <path d="M53.731 36.6211C54.0419 36.876 54.3881 37.1581 54.658 37.4562C54.4798 37.8007 54.2592 43.1727 54.2385 43.9379C55.4016 42.7039 56.6044 41.4847 57.7153 40.2027L58.0877 40.5382C57.5595 40.9146 56.7579 42.5731 56.2982 43.2089C55.9464 43.6955 55.4988 44.1202 55.0741 44.5423C54.7755 44.8391 54.5325 45.1675 54.1136 45.271C53.7019 45.3728 52.3972 47.0485 51.9739 47.4359C51.9718 47.1962 51.983 46.9546 51.9881 46.7149C52.4662 46.3089 53.362 45.0734 53.8044 44.526C53.7821 43.7317 53.783 42.9374 53.8072 42.1432C53.8518 40.8276 54.1601 37.7319 53.731 36.6211Z" fill="#FBEDE0"/>
  <path d="M60.0658 42.8613C59.5056 43.9344 58.8333 44.9589 58.2191 46.0023C57.7801 46.7481 57.3817 47.5193 56.9535 48.2717C56.5887 48.9126 56.1957 49.5373 55.8227 50.1734C54.8181 51.8859 53.9064 53.7096 52.7606 55.3298C52.7497 55.3051 52.7359 55.2814 52.7276 55.2556C52.4776 54.4747 54.2142 48.5228 54.5942 47.4992C54.7979 46.9507 55.0714 46.4411 55.36 45.934C56.2947 45.3331 57.2264 44.7274 58.1549 44.1169C58.7893 43.6963 59.4129 43.2525 60.0658 42.8613Z" fill="#FBEDE0"/>
  <path d="M39.6572 35.0776C39.8166 35.0465 39.8876 35.0883 40.0191 35.1758L40.0838 35.2195C41.2312 35.6907 42.1665 35.8003 43.3371 36.0913C44.7321 36.438 46.1165 36.8357 47.5025 37.2168C47.8518 37.3129 48.586 37.4213 48.8553 37.6134C47.5216 38.6738 46.25 39.8081 44.9126 40.8637L44.4846 41.1997C44.0887 40.6188 43.575 40.0802 43.1191 39.544C42.2185 38.4847 41.3018 37.4178 40.3582 36.3969L40.2899 36.414C40.126 36.1384 40.0073 35.8248 39.8772 35.5313L39.6572 35.0776Z" fill="#FBEDE0"/>
  <path d="M39.877 35.5312L40.0851 35.5436C41.0806 36.2738 41.809 37.321 42.6005 38.2509C43.3611 39.1307 44.1317 40.0016 44.9124 40.8636L44.4843 41.1996C44.0885 40.6188 43.5748 40.0802 43.1189 39.544C42.2182 38.4847 41.3016 37.4177 40.3579 36.3968L40.2897 36.414C40.1258 36.1383 40.0071 35.8248 39.877 35.5312Z" fill="#FBEDE0"/>
  <path d="M39.875 34.2903C39.8881 34.2365 39.9043 34.2013 39.9435 34.161C40.1076 33.9923 40.3229 33.8961 40.5392 33.8133C41.148 33.5804 41.7911 33.4102 42.4121 33.2105C43.1376 32.9773 43.858 32.7149 44.5785 32.4654C45.357 32.1959 47.878 31.104 48.4521 31.0771C49.6484 32.2964 50.7711 33.5816 51.9589 34.808C49.0594 34.8445 46.0195 34.6103 43.1153 34.4449C42.4129 34.4078 41.7103 34.3773 41.0074 34.3535C40.641 34.339 40.236 34.351 39.875 34.2903Z" fill="#FBEDE0"/>
  <path d="M31.334 33.4639C32.8205 34.6854 34.3192 35.8918 35.8301 37.0829C36.6711 37.7517 37.528 38.4015 38.3387 39.1073C38.5914 40.1793 39.2238 41.2293 39.6684 42.2309C40.0113 43.0033 40.4553 44.6822 41.0974 45.2102C40.8494 45.5928 40.5546 45.9536 40.2586 46.3C39.3412 44.7188 38.2247 43.2832 37.1582 41.8017C36.4014 40.7502 35.6254 39.7099 34.8835 38.6482C34.3665 37.9081 33.8777 37.1485 33.3602 36.4087C32.6825 35.44 31.9107 34.4966 31.334 33.4639Z" fill="#FBEDE0"/>
  <path d="M40.6416 0.815314L40.737 0.807617L40.7409 0.866271C40.1223 1.54906 39.3805 2.15286 38.6932 2.7662L34.3362 6.58225C33.9257 6.03546 33.5269 5.48036 33.1396 4.91694C32.5248 4.03996 31.9125 3.16245 31.2559 2.31608C32.5245 2.04112 33.8427 1.88913 35.1253 1.68557C36.9628 1.39398 38.7985 1.06851 40.6416 0.815314Z" fill="#FBEDE0"/>
  <path d="M22.8084 11.5654C23.0217 11.7132 26.1442 16.1085 26.2733 16.4124C25.1547 17.9132 23.9968 19.3766 22.8475 20.8536C22.3442 21.5038 21.822 22.1414 21.3525 22.8167C21.5364 20.2998 21.9427 17.7778 22.2968 15.2805C22.4636 14.104 22.5667 12.6991 22.8084 11.5654Z" fill="#FBEDE0"/>
  <path d="M55.0771 18.3457C56.1281 18.4024 57.1818 18.5568 58.2307 18.6527C60.8671 18.8938 63.5219 19.1359 66.1662 19.2609C66.3497 19.2733 66.5814 19.2612 66.7559 19.3111L67.9534 19.3916C67.5966 19.7316 67.2451 20.0803 66.8667 20.3965C65.8645 21.3256 64.9198 22.3256 63.9631 23.3013C63.858 23.1098 63.5449 22.6911 63.3591 22.5892C62.6142 22.1934 61.9037 21.7279 61.1598 21.3272C59.9819 20.6928 58.747 20.1291 57.5364 19.5583C57.017 19.3135 55.3968 18.7297 55.0771 18.3457Z" fill="#FBEDE0"/>
  <path d="M64.9803 2.08691C66.4805 3.46073 67.9679 4.89072 69.5173 6.208C68.0373 6.27966 66.5619 6.45182 65.0855 6.57726C63.8404 6.68307 62.5913 6.7404 61.3467 6.84868C60.365 6.93397 59.3642 7.08825 58.3809 7.1216C59.6451 6.22622 60.8472 5.22212 62.0854 4.28914C63.0349 3.57379 64.1168 2.89949 64.9803 2.08691Z" fill="#FBEDE0"/>
  <path d="M63.1598 0.371094C63.7589 0.950852 64.3656 1.52256 64.9799 2.08622C64.1164 2.89879 63.0345 3.57309 62.0851 4.28844C60.8468 5.22142 59.6447 6.22553 58.3805 7.12091C57.495 7.23229 56.5806 7.36021 55.6888 7.39675C55.4467 7.04288 55.2859 6.65778 55.0605 6.2971C57.7442 4.29979 60.444 2.32446 63.1598 0.371094Z" fill="#FBEDE0"/>
  <path d="M31.3564 32.0111C32.2354 29.9205 33.2574 27.8863 34.2201 25.8332C34.7185 24.7704 35.2451 23.7187 35.7373 22.6537C36.2163 21.617 36.6669 20.5698 37.1901 19.5537C37.4212 21.864 37.7791 24.1607 38.0311 26.4687L32.9097 30.7222C32.6418 30.9427 31.6837 31.8435 31.4906 31.9606C31.4315 31.9964 31.4153 31.9967 31.3564 32.0111Z" fill="#FBEDE0"/>
  <path d="M52.8298 19.9434C53.0404 20.1969 53.2292 21.2654 53.3522 21.671C54.0296 23.858 54.7283 26.0381 55.4482 28.2114C55.7052 28.9926 55.9722 30.1463 56.3533 30.8283C55.0885 32.0463 53.8345 33.3019 52.5186 34.4623C52.7279 29.6298 52.7356 24.7798 52.8298 19.9434Z" fill="#FBEDE0"/>
  <path d="M31.459 33.1455C32.4742 33.439 33.5483 33.5926 34.589 33.7743L38.9918 34.5533C39.0965 34.638 39.1483 34.7325 39.2098 34.8498C39.7775 35.9327 40.2523 37.0851 40.7801 38.1909C41.3835 39.4548 42.1498 40.8596 42.6028 42.1695C42.0698 41.7343 40.745 40.8252 40.3909 40.3907C39.649 39.8282 38.9503 39.2133 38.23 38.6241L35.7709 36.6491C34.3313 35.4807 32.8559 34.3662 31.459 33.1455Z" fill="#FBEDE0"/>
  <path d="M38.0312 26.4688C38.1071 26.9661 38.187 27.4634 38.2566 27.9617C38.3655 28.5634 38.4326 29.169 38.5063 29.7757C38.6443 30.9817 38.8174 32.194 38.9183 33.4032C38.8174 33.4229 32.4092 32.7194 32.1341 32.6265L32.1155 32.5634L32.1103 32.4979C31.7844 32.5996 31.4438 32.6967 31.1 32.6927C31.0593 32.5034 31.2633 32.1807 31.3565 32.0112C31.4153 31.9967 31.4315 31.9965 31.4906 31.9606C31.6837 31.8435 32.6418 30.9427 32.9097 30.7223L38.0312 26.4688Z" fill="#FBEDE0"/>
  <path d="M73.4328 2.19727C74.5323 3.13688 75.7614 4.66197 76.7653 5.76746C78.0386 7.16932 79.4856 8.57472 80.5959 10.1025C79.7549 9.82875 78.9155 9.54993 78.0778 9.26601C76.5823 8.74935 75.1155 8.15768 73.6274 7.6213C72.4347 7.19153 71.1868 6.82315 70.0391 6.28323C70.7006 5.46322 71.4019 4.67135 72.0751 3.86028C72.5322 3.30957 72.9587 2.7332 73.4328 2.19727Z" fill="#FBEDE0"/>
  <path d="M30.9703 2.50391C31.3756 2.78019 33.6577 6.07552 34.0795 6.75929C31.3167 7.83765 28.5394 8.87732 25.7477 9.8783C24.9589 10.1724 24.163 10.5074 23.3477 10.7195C25.8406 7.93865 28.4874 5.29382 30.9703 2.50391Z" fill="#FBEDE0"/>
  <path d="M44.3165 18.7498C44.6897 18.6898 45.0902 18.6956 45.4682 18.6706C46.1718 18.6222 46.8751 18.5703 47.5782 18.5146C49.0478 18.3982 50.5255 18.1946 51.9974 18.1318L52.0015 18.195L52.0663 18.2481C51.9973 18.3304 51.9134 18.4154 51.8531 18.5033C50.874 19.3051 49.6557 19.9266 48.5596 20.5614C46.9909 21.47 45.4262 22.3823 43.905 23.3684C43.4286 23.6772 42.7878 23.9509 42.385 24.3417L42.0772 24.031L41.7569 23.668L41.0332 22.8549C41.1613 22.4638 41.2503 22.0662 41.398 21.68C41.7697 20.7086 42.2776 19.7801 42.7596 18.8597C43.279 18.8291 43.798 18.7924 44.3165 18.7498Z" fill="#FBEDE0"/>
  <path d="M52.0014 18.1953L52.0662 18.2484C51.9972 18.3307 51.9133 18.4157 51.8531 18.5036C50.8739 19.3054 49.6556 19.9269 48.5595 20.5617C46.9908 21.4703 45.4261 22.3826 43.9049 23.3687C43.4286 23.6775 42.7877 23.9512 42.3849 24.342L42.0771 24.0313C42.7037 23.57 43.4295 23.1865 44.0959 22.7824L48.0981 20.387C49.1752 19.7541 50.9226 18.5677 52.0014 18.1953Z" fill="#FBEDE0"/>
  <path d="M42.7596 18.86C43.279 18.8293 43.798 18.7926 44.3165 18.75C43.7653 19.6454 43.2101 20.541 42.7445 21.485C42.4728 22.0358 42.0846 23.2511 41.7569 23.6682L41.0332 22.8551C41.1613 22.464 41.2503 22.0664 41.398 21.6802C41.7697 20.7089 42.2776 19.7803 42.7596 18.86Z" fill="#FBEDE0"/>
  <path d="M42.0306 44.3716C42.3463 43.8921 42.658 43.4095 42.9934 42.9432L43.0061 42.9801L43.0283 42.9121C43.0991 42.9501 43.1862 43.0949 43.2392 43.1615C45.1753 45.9061 47.1449 48.6265 49.1478 51.3227C49.707 52.0772 50.2718 52.8275 50.8422 53.5735C51.1794 54.0198 51.5696 54.4852 51.8386 54.9757C51.1346 54.4879 50.4623 53.9319 49.7771 53.4155C49.1882 52.9718 48.5732 52.5569 47.9946 52.1009C47.1085 51.5033 46.2585 50.8311 45.3989 50.1954C44.3844 49.445 43.3453 48.7123 42.3585 47.9263C41.8579 47.6691 40.9097 46.9117 40.4805 46.5145C41.0193 45.8162 41.536 45.1019 42.0306 44.3716Z" fill="#FBEDE0"/>
  <path d="M42.0306 44.3721C42.0417 44.3852 42.053 44.3981 42.0639 44.4113C42.7996 45.3061 43.553 46.1497 44.3402 47.001C44.8819 47.5868 45.4262 48.1968 46.0497 48.697C45.432 48.3992 44.8193 48.1037 44.1699 47.8795C43.5192 47.4115 42.1152 47.1247 41.35 46.7646C41.2452 46.7152 41.1505 46.709 41.0361 46.7058L41.0106 46.7358C41.1753 46.9784 41.713 47.0376 41.9664 47.188C41.7257 47.125 41.4761 47.0189 41.2354 46.9723C41.5847 47.3073 42.0056 47.5895 42.3969 47.8768L42.3585 47.9267C41.8579 47.6695 40.9097 46.9122 40.4805 46.5149C41.0193 45.8166 41.536 45.1023 42.0306 44.3721Z" fill="#FBEDE0"/>
  <path d="M51.8529 18.5029L51.9168 18.5779C51.7421 19.1207 51.3891 19.6603 51.1243 20.1655C50.1244 22.0733 49.2054 23.7023 47.988 25.4784C47.4893 26.2062 46.7036 27.1528 46.3487 27.9154C46.3159 27.9752 46.236 28.077 46.2504 28.144C46.2694 28.2316 46.3297 28.2903 46.3845 28.3582L46.4049 28.4948C45.8718 27.9889 45.3914 27.4222 44.8788 26.8946C44.3182 26.3177 43.7035 25.7659 43.1865 25.1508C42.9065 24.9026 42.6487 24.6082 42.3848 24.3413C42.7876 23.9505 43.4284 23.6768 43.9047 23.368C45.4259 22.3819 46.9907 21.4696 48.5594 20.561C49.6555 19.9262 50.8738 19.3047 51.8529 18.5029Z" fill="#FBEDE0"/>
  <path d="M69.1447 7.12728C69.3161 6.99883 69.4399 6.81782 69.5884 6.66406C69.5688 6.92088 69.5718 7.21716 69.508 7.4647C69.3874 7.58236 69.3353 7.72276 69.2774 7.87775C68.778 9.21574 68.4293 10.6231 68.0059 11.9866C67.6989 12.975 67.3177 13.9414 67.044 14.9403C66.8602 15.6109 66.4393 17.2059 66.4271 17.8416C66.268 17.7373 66.1201 17.6211 65.9701 17.5044C64.7043 16.6133 63.5247 15.5915 62.2998 14.6444L62.0398 14.4484L61.3228 13.9452L60.9072 13.656C60.9982 13.5677 61.0966 13.4905 61.1957 13.4118C62.1532 12.8794 63.1495 12.4084 64.0828 11.8337C65.4232 11.008 66.6215 9.91737 67.7098 8.78596C68.2136 8.26223 68.7515 7.74142 69.1447 7.12728Z" fill="#FBEDE0"/>
  <path d="M69.1447 7.12728C69.3161 6.99883 69.4399 6.81782 69.5884 6.66406C69.5688 6.92088 69.5718 7.21716 69.508 7.4647C69.3874 7.58236 69.3353 7.72276 69.2774 7.87775C68.778 9.21574 68.4293 10.6231 68.0059 11.9866C67.6989 12.975 67.3177 13.9414 67.044 14.9403C66.8602 15.6109 66.4393 17.2059 66.4271 17.8416C66.268 17.7373 66.1201 17.6211 65.9701 17.5044C66.2257 17.0779 66.4588 15.3749 66.6387 14.7498C67.2386 12.666 68.0563 10.6514 68.6323 8.55993C68.1165 9.00607 67.6537 9.54342 67.1681 10.0252C65.9268 11.2565 64.5314 12.3356 62.9223 13.047C62.7169 13.1333 62.4658 13.2224 62.2995 13.3728C61.9822 13.5415 61.5937 13.7109 61.3228 13.9452L60.9072 13.656C60.9982 13.5677 61.0966 13.4905 61.1957 13.4118C62.1532 12.8794 63.1495 12.4084 64.0828 11.8337C65.4232 11.008 66.6215 9.91737 67.7098 8.78596C68.2136 8.26223 68.7515 7.74142 69.1447 7.12728Z" fill="#FBEDE0"/>
  <path d="M80.5873 19.875C81.2679 20.8004 81.9536 21.7487 82.7322 22.5946C81.2259 24.3419 79.6607 26.0395 78.1504 27.7848L75.4564 30.9135C75.1265 31.3001 74.8192 31.7124 74.4795 32.0895C74.8876 30.334 75.4954 28.6061 76.008 26.8765C76.2424 26.0977 76.4686 25.3164 76.6863 24.5327C76.8309 24.0061 76.952 23.465 77.1272 22.9478C77.5324 22.6818 77.9056 22.2791 78.2717 21.9562C79.0521 21.2677 79.8423 20.6028 80.5873 19.875Z" fill="#FBEDE0"/>
  <path d="M43.2393 43.162L43.4557 43.0928L43.5227 43.1408C44.8333 43.8559 46.1385 44.5805 47.4384 45.3148C48.1402 45.705 48.8909 46.0698 49.5581 46.5148C50.0908 46.7785 51.2435 47.3617 51.6733 47.7252C51.6967 47.9082 51.721 48.0879 51.7239 48.2726C51.7724 49.1406 52.071 54.0926 52.251 54.5242C52.3352 54.6356 52.394 54.8043 52.385 54.9455C52.3771 55.069 52.3352 55.0934 52.2499 55.1675C52.1433 55.1897 52.055 55.1668 51.9635 55.108C51.9008 55.0676 51.875 55.0396 51.8386 54.9763C51.5696 54.4857 51.1794 54.0204 50.8423 53.5741C50.2718 52.828 49.7069 52.0778 49.1478 51.3233C47.1449 48.6271 45.1753 45.9067 43.2393 43.162Z" fill="#FBEDE0"/>
  <path d="M43.2393 43.162L43.4557 43.0928L43.5227 43.1408C44.2492 44.2095 45.057 45.2255 45.8157 46.2714L52.2929 55.1318L52.251 54.5242C52.3352 54.6356 52.394 54.8043 52.385 54.9455C52.3771 55.069 52.3352 55.0934 52.2499 55.1675C52.1433 55.1897 52.055 55.1668 51.9635 55.108C51.9008 55.0676 51.875 55.0396 51.8386 54.9763C51.5696 54.4857 51.1794 54.0204 50.8423 53.5741C50.2718 52.828 49.7069 52.0778 49.1478 51.3233C47.1449 48.6271 45.1753 45.9067 43.2393 43.162Z" fill="#48454C"/>
  <path d="M47.4382 45.3145C48.14 45.7046 48.8908 46.0694 49.558 46.5144C50.0907 46.7781 51.2433 47.3613 51.6732 47.7248C51.6965 47.9078 51.7209 48.0876 51.7238 48.2723C50.9589 48.4533 49.4479 50.8011 49.2417 50.8703C49.2027 50.7702 49.2221 50.7115 49.2685 50.6172C49.5063 50.1333 50.4812 48.7836 50.8876 48.486C50.0907 47.6741 49.0852 47.0167 48.2078 46.2881C47.9755 46.0953 47.661 45.8843 47.4723 45.6491C47.3828 45.5375 47.4232 45.446 47.4382 45.3145Z" fill="#FBEDE0"/>
  <path d="M51.1034 48.292C50.8104 47.4943 49.7259 47.1898 49.2969 46.4836C49.3968 46.4778 49.4605 46.4942 49.5579 46.5149C50.0906 46.7786 51.2432 47.3618 51.6731 47.7253C51.5056 47.9406 51.3071 48.1124 51.1034 48.292Z" fill="#FBEDE0"/>
  <path d="M56.265 34.4644C57.2469 34.2126 58.3248 34.1161 59.3311 33.9668L59.3212 34.0824C59.4933 34.2691 60.0914 34.2513 60.3363 34.2618C60.8858 34.2855 61.4335 34.2381 61.9819 34.2563C62.3748 34.2694 62.7664 34.3397 63.1579 34.3431L63.1835 34.3126C63.3264 34.3292 63.479 34.3481 63.5733 34.4714C63.6514 34.5738 63.6422 34.6303 63.6489 34.7546C63.2471 34.9972 62.8718 35.2454 62.5205 35.5579C61.8719 36.1346 61.3314 36.8373 60.7443 37.4754C59.8873 38.4068 58.9924 39.3089 58.1828 40.2829L57.8244 39.9633C56.6703 38.9335 55.5325 37.8862 54.4109 36.8212C54.1995 36.6766 54.0027 36.4622 53.8119 36.2887L53.5141 35.9928L53.1934 35.675C53.4729 35.3664 53.8007 35.1055 54.0797 34.7956L54.4382 34.7515C55.041 34.6383 55.6547 34.5274 56.265 34.4644Z" fill="#FBEDE0"/>
  <path d="M54.0797 34.7961L54.4382 34.752C54.1986 35.1418 53.8592 35.6978 53.5141 35.9932L53.1934 35.6755C53.4729 35.3668 53.8007 35.1059 54.0797 34.7961Z" fill="#FBEDE0"/>
  <path d="M56.2646 34.4644C57.2465 34.2126 58.3243 34.1161 59.3307 33.9668L59.3208 34.0824C59.4929 34.2691 60.091 34.2513 60.3359 34.2618C60.8854 34.2855 61.4331 34.2381 61.9815 34.2563C62.3744 34.2694 62.766 34.3397 63.1575 34.3431L63.1831 34.3126C63.326 34.3292 63.4786 34.3481 63.5729 34.4714C63.651 34.5738 63.6418 34.6303 63.6485 34.7546C63.2467 34.9972 62.8714 35.2454 62.5201 35.5579C61.8715 36.1346 61.331 36.8373 60.7439 37.4754C59.8869 38.4068 58.992 39.3089 58.1824 40.2829L57.824 39.9633C58.3998 39.1359 59.1619 38.4274 59.8682 37.7138C60.4014 37.1751 60.9206 36.6233 61.4259 36.0583C59.7922 36.2236 58.1726 36.5028 56.541 36.6728C55.9022 36.7393 54.9806 36.6626 54.4105 36.8212C54.1991 36.6766 54.0023 36.4622 53.8115 36.2887C54.252 36.2331 54.7017 36.2383 55.1445 36.2009C55.8449 36.1417 56.5415 36.033 57.2416 35.9678C58.5806 35.8431 59.9936 35.7917 61.2925 35.4262C61.8975 35.2559 62.5731 34.9897 63.0103 34.5247C61.4544 34.5952 59.9104 34.4825 58.357 34.4673C57.7638 34.4614 57.1699 34.5591 56.579 34.5456C56.4303 34.5422 56.394 34.5382 56.2646 34.4644Z" fill="#FBEDE0"/>
  <path d="M54.4102 36.8214C54.9803 36.6628 55.9019 36.7395 56.5407 36.673C58.1723 36.5031 59.7919 36.2239 61.4256 36.0586C60.9203 36.6235 60.4011 37.1754 59.8679 37.7141C59.1616 38.4277 58.3995 39.1361 57.8237 39.9636C56.6697 38.9338 55.5318 37.8864 54.4102 36.8214Z" fill="#FBEDE0"/>
  <path d="M33.7434 7.25879L33.7821 7.26144C33.736 7.46934 27.3611 15.1125 26.4962 16.1201C25.9478 15.5497 25.5024 14.791 25.0483 14.1394C24.3563 13.1738 23.6138 12.2073 23.002 11.1904C23.484 10.9548 24.0172 10.7976 24.5238 10.6206C25.4172 10.3084 26.3152 10.0054 27.2041 9.68077C29.3852 8.88412 31.5355 7.98068 33.7434 7.25879Z" fill="#FBEDE0"/>
  <path d="M73.4276 32.8438L73.496 32.8458C73.3463 33.1237 64.6527 39.3796 63.7486 40.019C62.837 40.6561 61.9181 41.2825 60.9917 41.898L60.9084 41.932C60.9013 41.7358 61.1473 41.3741 61.2427 41.1946C61.7142 40.307 62.2425 39.451 62.724 38.5689C63.6605 36.8535 64.5568 35.1112 65.4596 33.3777C67.0352 33.2451 68.6108 33.1643 70.1881 33.0597C71.2675 32.9882 72.3461 32.8759 73.4276 32.8438Z" fill="#FBEDE0"/>
  <path d="M52.8499 18.6992C52.9492 18.7393 53.0281 18.7761 53.1067 18.8509C53.4624 19.1898 53.7751 19.6151 54.0976 19.9885C54.4902 20.443 54.906 20.8736 55.3222 21.3063C56.3551 22.361 57.4032 23.4004 58.4667 24.4244C59.1718 25.115 59.9751 25.8325 60.5434 26.6425C59.2667 27.9603 57.9447 29.2354 56.6521 30.5379L56.3536 30.8283C55.9724 30.1463 55.7054 28.9926 55.4485 28.2113C54.7286 26.038 54.0299 23.8579 53.3525 21.671C53.2295 21.2654 53.0407 20.1969 52.8301 19.9433C52.8255 19.5717 52.8378 19.2042 52.858 18.8331L52.8499 18.6992Z" fill="#FBEDE0"/>
  <path d="M52.8301 19.9433C52.8255 19.5716 52.8378 19.2041 52.858 18.833C52.8807 19.1658 53.3054 19.8704 53.4529 20.2402C53.7234 20.9187 53.8914 21.6649 54.1143 22.3631L55.883 27.9785L56.4435 29.8193C56.5141 30.0534 56.5653 30.312 56.6521 30.5378L56.3536 30.8282C55.9724 30.1462 55.7054 28.9925 55.4485 28.2113C54.7286 26.038 54.0299 23.8579 53.3525 21.671C53.2295 21.2653 53.0407 20.1968 52.8301 19.9433Z" fill="#FBEDE0"/>
  <path d="M70.4531 6.79883C70.9112 6.89623 71.3682 7.10342 71.8063 7.26771L73.9888 8.07957C76.2748 8.92615 78.5703 9.74583 80.8754 10.5386C80.6948 11.1321 80.4174 11.7102 80.1698 12.2781L79.0622 14.808C78.8099 15.3886 78.5807 15.9769 78.353 16.5675C77.9571 16.1589 77.5985 15.6939 77.2347 15.2558C76.1164 13.9093 75.0737 12.5006 73.9917 11.125C73.2597 10.1943 72.5336 9.25283 71.775 8.34374C71.342 7.82496 70.8604 7.33698 70.4531 6.79883Z" fill="#FBEDE0"/>
  <path d="M52.8496 18.6993C52.8898 18.5146 52.837 18.3374 52.91 18.1544L53.0271 18.1074L53.4075 18.1718C53.8506 18.1793 54.6751 18.211 55.0777 18.3455C55.3973 18.7295 57.0175 19.3133 57.5369 19.5581C58.7476 20.1289 59.9824 20.6926 61.1603 21.327C61.9042 21.7277 62.6147 22.1932 63.3596 22.589C63.5454 22.6909 63.8585 23.1096 63.9636 23.3011L63.6504 23.6015C63.4259 23.8147 63.206 24.0378 62.9742 24.2427C62.7249 24.5241 62.4436 24.7788 62.1721 25.0387C61.7641 25.4197 61.3639 25.8087 60.9713 26.2057L60.5431 26.6425C59.9748 25.8326 59.1715 25.115 58.4664 24.4245C57.403 23.4005 56.3548 22.3611 55.3219 21.3063C54.9057 20.8736 54.49 20.4431 54.0974 19.9886C53.7748 19.6152 53.4622 19.1898 53.1064 18.851C53.0279 18.7761 52.949 18.7393 52.8496 18.6993Z" fill="#FBEDE0"/>
  <path d="M52.8496 18.6993C52.8898 18.5146 52.837 18.3374 52.91 18.1544L53.0271 18.1074C53.0545 18.1848 53.0725 18.2382 53.123 18.3043C53.431 18.7075 53.9932 19.1243 54.3657 19.5153C55.2566 20.4508 56.0955 21.4347 56.9989 22.3594C57.6423 23.018 58.3443 23.6198 58.994 24.2732C59.5813 24.8638 60.3028 25.7528 60.9713 26.2057L60.5431 26.6425C59.9748 25.8326 59.1715 25.115 58.4664 24.4245C57.403 23.4005 56.3548 22.3611 55.3219 21.3063C54.9057 20.8736 54.49 20.4431 54.0974 19.9886C53.7748 19.6152 53.4622 19.1898 53.1064 18.851C53.0279 18.7761 52.949 18.7393 52.8496 18.6993Z" fill="#FBEDE0"/>
  <path d="M53.4072 18.1719C53.8504 18.1794 54.6749 18.2111 55.0774 18.3455C55.397 18.7296 57.0172 19.3134 57.5366 19.5582C58.7473 20.129 59.9821 20.6927 61.1601 21.3271C61.9039 21.7277 62.6145 22.1933 63.3594 22.5891C63.5452 22.691 63.8583 23.1096 63.9634 23.3011L63.6501 23.6016C63.4257 23.8148 63.2057 24.0379 62.9739 24.2427C62.7246 24.5241 62.4433 24.7788 62.1719 25.0387C62.1684 25.0273 62.1643 25.0162 62.1616 25.0047C62.0132 24.3668 62.5857 23.3951 62.8855 22.8523C61.6387 22.0168 60.2087 21.3798 58.865 20.7144C57.7698 20.172 56.7033 19.5921 55.5935 19.0765C55.1677 18.8755 54.735 18.6906 54.2955 18.5216C54.0057 18.4087 53.6657 18.3429 53.4072 18.1719Z" fill="#FBEDE0"/>
  <path d="M63.3413 23.1787L63.6497 23.6012C63.4253 23.8144 63.2053 24.0376 62.9736 24.2424C62.9423 23.8587 63.1743 23.5103 63.3413 23.1787Z" fill="#FBEDE0"/>
  <path d="M51.0592 36.1212C51.4398 35.8007 51.8207 35.4414 52.2268 35.1562C52.2383 35.5574 52.2369 35.954 52.2213 36.3549L52.2034 36.7693C52.1899 36.979 52.2029 37.265 52.1365 37.4623C52.0312 37.4576 52.0074 37.455 51.929 37.5405C51.6497 37.8454 51.0367 39.8618 50.8184 40.4201C50.5405 41.1311 50.2171 41.8241 49.9329 42.5327C49.6935 43.1295 49.4966 43.7424 49.2665 44.3427C49.0956 44.7886 48.8441 45.2565 48.7492 45.7234L48.366 45.5103C47.8458 45.2373 47.3407 44.9287 46.8246 44.647C45.8579 44.1193 44.8824 43.6077 43.9292 43.0559C43.7469 42.9878 43.5501 42.836 43.3804 42.7348C43.2925 42.681 43.2753 42.6908 43.2363 42.5901C43.6157 42.0879 44.5816 41.5179 45.1018 41.0891L50.8812 36.2603L51.0592 36.1212Z" fill="#FBEDE0"/>
  <path d="M51.876 36.7942C52.0056 36.8102 52.0798 36.8018 52.2028 36.7695C52.1893 36.9792 52.2023 37.2652 52.136 37.4625C52.0306 37.4578 52.0068 37.4552 51.9284 37.5408C51.6491 37.8457 51.0361 39.8621 50.8179 40.4203C50.5399 41.1313 50.2166 41.8244 49.9323 42.5329C49.6929 43.1297 49.496 43.7426 49.2659 44.343C49.0951 44.7889 48.8436 45.2568 48.7486 45.7236L48.3655 45.5106C48.5871 45.1026 48.8676 44.0609 49.0557 43.562C49.453 42.5384 49.8558 41.517 50.2639 40.4977C50.6018 39.6371 50.915 38.7577 51.3034 37.9185C51.0921 37.9393 49.8155 39.0362 49.5389 39.2532C48.5081 40.0616 47.4797 40.842 46.3824 41.5598C45.79 41.9473 44.3298 42.6333 43.9286 43.0561C43.7463 42.9881 43.5496 42.8363 43.3799 42.7351C43.8989 42.6374 44.4369 42.258 44.8891 41.9912C45.6249 41.5572 46.365 41.127 47.0675 40.6402C47.5078 40.335 47.9204 39.9932 48.3549 39.6803C49.3288 38.9788 50.2962 38.2583 51.1797 37.4421C50.7154 37.4337 50.2023 37.5364 49.75 37.4699L49.7476 37.4233C50.0556 37.2429 50.4169 37.2473 50.7593 37.171C51.0834 37.0987 51.3964 37.0059 51.7112 36.9012L51.876 36.7942Z" fill="#FBEDE0"/>
  <path d="M51.0592 36.1212C51.4398 35.8007 51.8207 35.4414 52.2268 35.1562C52.2383 35.5574 52.2369 35.954 52.2213 36.3549L52.2034 36.7693C52.0803 36.8016 52.0061 36.81 51.8766 36.794L51.7118 36.9009C51.3969 37.0057 51.0839 37.0985 50.7599 37.1707C50.4174 37.2471 50.0561 37.2427 49.7482 37.4231L49.7506 37.4697C50.2029 37.5361 50.7159 37.4335 51.1803 37.4419C50.2968 38.2581 49.3294 38.9786 48.3554 39.68C47.921 39.993 47.5083 40.3348 47.068 40.6399C46.3655 41.1268 45.6255 41.557 44.8897 41.991C44.4375 42.2577 43.8995 42.6372 43.3804 42.7348C43.2925 42.681 43.2753 42.6908 43.2363 42.5901C43.6157 42.0879 44.5816 41.5179 45.1018 41.0891L50.8812 36.2603L51.0592 36.1212Z" fill="#FBEDE0"/>
  <path d="M60.51 42.667C61.0476 43.0647 61.5477 43.5416 62.0599 43.973L64.7008 46.1609C63.9738 46.8208 63.0888 47.357 62.307 47.9587L55.7975 52.9378C54.9664 53.5755 54.1225 54.21 53.3467 54.9144C54.6479 52.7497 55.933 50.5755 57.2019 48.3917C58.2946 46.4799 59.3538 44.5414 60.51 42.667Z" fill="#FBEDE0"/>
  <path d="M73.4335 33.3096C73.4286 33.5095 71.3444 36.3659 71.0495 36.797C69.8386 38.5756 68.6438 40.3648 67.4649 42.1646C66.6278 43.4322 65.7962 44.7298 64.8824 45.9432C64.1659 45.4716 63.277 44.6311 62.5904 44.0596C61.9613 43.5293 61.3358 42.9947 60.7139 42.456L73.4335 33.3096Z" fill="#FBEDE0"/>
  <path d="M64.1685 23.46C64.7737 23.9999 65.2828 24.6007 65.835 25.1907C66.2202 25.6022 66.6313 25.9927 67.0352 26.3859L66.9701 26.7065L66.7476 27.7801C66.6866 28.0904 66.6154 28.3943 66.534 28.6997C66.3882 28.6742 66.3334 28.7043 66.2126 28.7903C65.793 29.0892 65.4155 29.4386 64.9859 29.7303C63.7778 30.5506 62.5309 31.3372 61.3033 32.1299C60.6713 32.538 59.9494 32.9256 59.3854 33.4235C59.2938 33.5044 59.2545 33.557 59.2304 33.6774C58.8612 33.7589 58.4593 33.8194 58.0827 33.8552C57.1598 34.0091 56.2253 34.2035 55.2954 34.3019C55.0465 34.3631 54.7934 34.3953 54.54 34.4317C54.8879 33.3042 57.6997 31.1834 58.6759 30.296C59.5711 29.4853 60.4442 28.6513 61.295 27.7941C61.1362 27.4675 60.9187 27.106 60.8518 26.7492L60.9879 26.5992C61.299 26.2826 61.6105 25.9697 61.9373 25.6693C62.2663 25.3501 62.5998 25.0357 62.9379 24.7263L63.8671 23.7733L64.1685 23.46Z" fill="#FBEDE0"/>
  <path d="M61.9367 25.6689C62.0591 25.9161 61.839 26.4873 61.7541 26.7375C61.6861 26.9383 61.6191 27.1412 61.5396 27.3377C61.3633 27.0952 61.1918 26.8165 60.9873 26.5989C61.2984 26.2823 61.6099 25.9694 61.9367 25.6689Z" fill="#FBEDE0"/>
  <path d="M64.1682 23.46C64.7734 23.9999 65.2824 24.6007 65.8346 25.1907C66.2198 25.6022 66.631 25.9927 67.0349 26.3859L66.9697 26.7065L66.7473 27.7801C65.1879 27.7978 63.6322 27.6346 62.0732 27.6363C62.2243 27.2527 62.3119 26.8407 62.4241 26.4442C62.5917 25.8706 62.7629 25.2979 62.9376 24.7263L63.8667 23.7733L64.1682 23.46Z" fill="#FBEDE0"/>
  <path d="M64.1686 23.46C64.7738 23.9999 65.2828 24.6007 65.8351 25.1907C66.2203 25.6022 66.6314 25.9927 67.0353 26.3859L66.9702 26.7065C66.3087 26.4668 64.6355 24.2942 63.8672 23.7733L64.1686 23.46Z" fill="#FBEDE0"/>
  <path d="M61.8114 28.0957C63.2347 28.0447 64.7963 28.2325 66.2543 28.234C64.7825 29.2049 63.3384 30.2188 61.8614 31.1832C60.718 31.9297 59.5039 32.6284 58.4219 33.4623C58.2756 33.5751 58.1734 33.6943 58.0823 33.8548C57.1594 34.0088 56.2249 34.2031 55.2949 34.3016C55.2992 34.2759 55.3047 34.2374 55.3133 34.214C55.417 33.9299 61.2957 28.4069 61.8114 28.0957Z" fill="#FBEDE0"/>
  <path d="M51.9975 18.1324L52.6146 18.1289L52.4544 26.303C52.4083 29.1207 52.3891 31.9522 52.2696 34.7672C51.184 33.6518 50.1766 32.4602 49.0992 31.3362C48.4373 30.6456 47.7612 29.9707 47.1084 29.2709C46.8844 29.0307 46.5893 28.7653 46.4052 28.4957L46.3848 28.3591C46.33 28.2912 46.2697 28.2325 46.2507 28.1449C46.2363 28.0779 46.3162 27.9761 46.349 27.9163C46.7039 27.1538 47.4896 26.2071 47.9883 25.4793C49.2057 23.7032 50.1247 22.0742 51.1246 20.1664C51.3894 19.6612 51.7424 19.1216 51.9171 18.5788L51.8532 18.5038C51.9135 18.4159 51.9973 18.3309 52.0663 18.2486L52.0016 18.1955L51.9975 18.1324Z" fill="#FBEDE0"/>
  <path d="M51.8809 19.8057C51.9329 20.3926 51.6318 21.545 51.5227 22.1794C51.1658 24.2529 50.7856 26.3182 50.4556 28.3967C50.3047 29.3467 50.0842 30.3294 50.0653 31.2919C49.4971 30.7552 48.8831 30.2616 48.3046 29.7348C47.7644 29.252 47.2625 28.7469 46.7012 28.2838C47.9883 26.4336 49.2708 24.5324 50.404 22.5835C50.9296 21.6794 51.3187 20.6837 51.8809 19.8057Z" fill="#FBEDE0"/>
  <path d="M26.3635 16.749C26.5713 16.9474 30.2847 31.0914 30.5863 32.3452C29.7341 31.5388 28.9 30.7142 28.0839 29.8712L23.3839 25.204C22.7205 24.5484 22.0097 23.9293 21.3828 23.2392C22.1042 22.2314 22.896 21.2788 23.6579 20.3022C24.5677 19.1238 25.4695 17.9394 26.3635 16.749Z" fill="#FBEDE0"/>
  <path d="M68.836 6.53859C69.0688 6.48834 69.3133 6.46693 69.5476 6.51603C69.6124 6.60326 69.5984 6.55416 69.588 6.66368C69.4395 6.81744 69.3157 6.99844 69.1443 7.1269C68.7511 7.74104 68.2132 8.26185 67.7094 8.78558C66.6211 9.91699 65.4228 11.0076 64.0824 11.8333C63.1491 12.4081 62.1528 12.879 61.1953 13.4114C61.0962 13.4901 60.9978 13.5673 60.9068 13.6556C60.3483 13.2478 59.8234 12.7948 59.2692 12.38C58.3227 11.6716 57.3517 10.9977 56.4036 10.2919L56.22 10.1557C56.0539 10.0609 55.8957 9.9445 55.7363 9.83861C55.9437 9.66742 56.122 9.53383 56.3909 9.48544L56.4662 9.41591C56.2082 8.99648 55.8965 8.14666 55.7693 7.66337L58.1922 7.42565C60.5954 7.19564 63.0012 6.99526 65.4094 6.82452C66.5509 6.73348 67.6927 6.59485 68.836 6.53859Z" fill="#FBEDE0"/>
  <path d="M55.7695 7.66349L58.1924 7.42578C57.6858 8.13494 57.0376 8.75872 56.4664 9.41604C56.2084 8.99661 55.8967 8.14679 55.7695 7.66349Z" fill="#FBEDE0"/>
  <path d="M41.2287 0.87793C42.1603 1.27524 43.4922 2.20317 44.3875 2.75769C46.0813 3.80674 47.7937 4.83172 49.473 5.90342C50.4193 6.5073 51.3298 7.1716 52.2892 7.75478C50.2242 7.5805 48.1562 7.455 46.0853 7.37826C44.8052 7.27175 43.5132 7.24477 42.2305 7.16515L34.6602 6.67406C35.9198 5.5108 37.2717 4.42575 38.556 3.2862C39.4204 2.51918 40.3335 1.56966 41.2287 0.87793Z" fill="#FBEDE0"/>
  <path d="M77.969 17.143L78.1235 17.1025C78.1863 17.1896 78.1731 17.2752 78.1585 17.3788C78.1234 17.6273 78.0448 17.8834 77.9845 18.1275L76.6421 23.5766C76.2056 23.689 72.5356 26.9332 71.9795 27.4916C71.8116 27.1452 71.6629 26.7873 71.5065 26.4355L71.2961 25.9807L70.0239 23.2433L69.7697 22.6718C69.3601 21.6485 68.7094 20.4356 68.4316 19.4037C69.4712 19.1239 70.5135 18.8547 71.5584 18.596C72.4482 18.369 73.334 18.1094 74.2456 17.9836C74.6183 17.8354 75.098 17.7875 75.4944 17.7111C76.3244 17.5598 77.1491 17.3409 77.969 17.143Z" fill="#FBEDE0"/>
  <path d="M34.2089 7.2793L34.289 7.3429C34.2671 7.40165 34.2711 7.36971 34.2834 7.43933L34.3164 7.42766C34.4675 8.16353 34.6986 8.89489 34.8755 9.62643C35.6163 12.6908 36.4675 15.7481 37.0946 18.8377C35.1273 18.3784 33.1675 17.8567 31.2069 17.3673C29.7283 17.0536 28.2508 16.6693 26.7969 16.2561C27.2434 15.597 27.8192 14.9803 28.3257 14.3639L31.5893 10.4348C32.08 9.85017 32.5624 9.25876 33.0365 8.66054C33.41 8.19299 33.7739 7.6912 34.2089 7.2793Z" fill="#FBEDE0"/>
  <path d="M41.2342 23.498C41.4278 23.7137 41.6544 23.93 41.8247 24.1629C41.9335 24.2786 42.0396 24.4005 42.1552 24.5092L44.9524 27.37C45.0966 27.513 45.2586 27.6532 45.3846 27.8119C46.2552 28.7656 47.1097 29.749 48.0329 30.6523L48.4526 31.0771C47.8785 31.104 45.3575 32.1958 44.5789 32.4653C43.8585 32.7148 43.1381 32.9772 42.4126 33.2105C41.7916 33.4101 41.1484 33.5803 40.5397 33.8132C40.3234 33.896 40.1081 33.9923 39.944 34.161C39.9048 34.2012 39.8886 34.2364 39.8755 34.2902L39.3188 34.2744C39.275 34.0306 39.2258 33.7901 39.2177 33.5419L38.8768 30.6093C38.8335 30.2863 38.7921 29.9629 38.7526 29.6394C38.6652 29.1006 38.6306 28.5429 38.5624 27.9999C38.4392 27.4225 38.3661 26.8204 38.2939 26.2343C38.5971 26.027 38.8741 25.7263 39.1507 25.4803C39.8601 24.8491 40.6334 24.236 41.2342 23.498Z" fill="#FBEDE0"/>
  <path d="M41.2935 26.1289C40.9685 27.4106 40.6586 28.7037 40.3103 29.9787C40.1236 30.662 39.8972 31.3334 39.709 32.0158C39.6175 32.3479 39.489 33.1556 39.3428 33.4218C39.3225 33.4589 39.2525 33.5158 39.2169 33.542L38.876 30.6095C39.2998 30.1781 39.5316 29.471 39.8092 28.938C40.2978 27.9999 40.78 27.0534 41.2935 26.1289Z" fill="#FBEDE0"/>
  <path d="M41.2342 23.498C41.4278 23.7137 41.6544 23.93 41.8247 24.1629L41.6631 24.4582C41.453 24.9656 41.1226 25.4321 40.8634 25.9171C40.3424 26.8919 39.45 28.8873 38.7526 29.6394C38.6652 29.1006 38.6306 28.5429 38.5624 27.9999C38.4392 27.4225 38.3661 26.8204 38.2939 26.2343C38.5971 26.027 38.8741 25.7263 39.1507 25.4803C39.8601 24.8491 40.6334 24.236 41.2342 23.498Z" fill="#FBEDE0"/>
  <path d="M45.3839 27.8115C46.2545 28.7652 47.1091 29.7486 48.0322 30.652C47.6691 30.8382 47.2366 30.9249 46.8564 31.0821C44.6173 32.0078 42.3031 32.7445 40.043 33.62C40.9175 32.6907 41.8179 31.7965 42.6733 30.8464C43.5802 29.8392 44.4353 28.78 45.3839 27.8115Z" fill="#FBEDE0"/>
  <path d="M42.1547 24.5098L44.9519 27.3705C44.4396 28.1912 43.4864 29.1134 42.8208 29.8652C42.3007 30.4526 41.8171 31.0715 41.3026 31.6637C40.7982 32.2443 40.2607 32.7973 39.7285 33.3523C39.9782 32.3547 40.3636 31.3734 40.6546 30.3844C41.2224 28.4435 41.7224 26.4852 42.1547 24.5098Z" fill="#FBEDE0"/>
  <path d="M69.9243 6.63867C72.1377 9.01925 74.0881 11.6939 76.0651 14.2718C76.6289 15.007 77.2665 15.689 77.8237 16.4276L78.1391 16.8155C77.3974 16.9889 76.6565 17.1719 75.9103 17.3238C75.5699 17.3926 75.2286 17.4573 74.8866 17.5179L74.1996 17.6872C73.1576 17.9063 72.1415 18.1763 71.1163 18.4631C70.2225 18.6147 69.2578 18.8714 68.3926 19.1461C68.4454 18.1517 68.5677 17.159 68.6559 16.1671C68.8455 14.0332 69.0436 11.9123 69.428 9.80245C69.4543 9.39293 69.5695 8.94511 69.6382 8.53789C69.6647 8.27037 69.721 7.99886 69.7624 7.73275C69.8135 7.36933 69.8518 6.99829 69.9243 6.63867Z" fill="#FBEDE0"/>
  <path d="M37.7695 18.8429C42.777 15.3774 47.5758 11.61 52.545 8.08887C52.6515 8.76149 52.7478 9.45313 52.7482 10.1352L52.7534 11.096C52.7531 11.5338 52.7489 11.9716 52.7407 12.4094L52.6585 15.7256C52.6459 16.4232 52.6615 17.1281 52.6098 17.8238C51.7362 17.787 50.8216 17.9412 49.9515 18.0254C48.7229 18.1391 47.4929 18.2362 46.2616 18.3165C45.6934 18.3664 45.1131 18.4417 44.5423 18.4398C44.105 18.4788 43.6627 18.529 43.2239 18.5433C41.4138 18.7169 39.5851 18.7429 37.7695 18.8429Z" fill="#FBEDE0"/>
  <path d="M43.2236 18.5428C43.2884 18.2169 43.518 17.8992 43.6981 17.6238C45.2473 15.2556 48.274 12.7463 50.6467 11.1984C51.2449 10.8081 52.0384 10.285 52.748 10.1348L52.7531 11.0955C50.1725 12.6741 48.0529 14.1137 46.0672 16.4519C45.5267 17.0882 45.0652 17.7892 44.5421 18.4393C44.1047 18.4783 43.6624 18.5286 43.2236 18.5428Z" fill="#FBEDE0"/>
  <path d="M52.754 11.0957C52.7538 11.5336 52.7496 11.9714 52.7414 12.4091L52.6591 15.7253C52.6465 16.423 52.6622 17.1279 52.6104 17.8236C51.7368 17.7867 50.8222 17.9409 49.9521 18.0251C48.7235 18.1389 47.4935 18.2359 46.2622 18.3163C45.694 18.3661 45.1137 18.4414 44.543 18.4395C45.0661 17.7893 45.5276 17.0884 46.0681 16.4521C48.0538 14.1139 50.1734 12.6743 52.754 11.0957Z" fill="#FBEDE0"/>
  <path d="M52.5449 8.08822L52.5699 8.05566L52.5767 8.06947C52.5923 8.07185 52.6079 8.07354 52.6233 8.07654C52.6375 8.07929 52.6513 8.08371 52.6654 8.08681C52.7469 8.1045 52.8292 8.11034 52.9119 8.11839L52.8699 8.16581C53.6757 8.72669 54.6026 9.32907 55.358 9.93905C55.5262 10.0522 55.7018 10.1606 55.8633 10.2829C56.1481 10.5034 56.47 10.6755 56.7488 10.8983C57.5157 11.4332 58.2529 12.0103 59.02 12.5443L59.2558 12.7133C59.7223 13.0846 60.2028 13.446 60.657 13.8318C60.8037 13.9326 60.9606 14.0286 61.1002 14.1385L61.4864 14.4037L61.8564 14.6512C63.2072 15.6439 64.4463 16.7907 65.8112 17.763C66.4289 18.2296 67.0563 18.6826 67.6934 19.1222L65.8191 18.9802C64.5456 18.96 63.2467 18.8085 61.9745 18.716C61.7948 18.7147 61.6149 18.6918 61.4361 18.6746C58.5856 18.5076 55.6968 18.1818 52.8671 17.8039L52.6097 17.8232C52.6614 17.1275 52.6458 16.4226 52.6583 15.7249L52.7406 12.4087C52.7488 11.971 52.753 11.5332 52.7533 11.0953L52.7481 10.1346C52.7477 9.45248 52.6513 8.76084 52.5449 8.08822Z" fill="#FBEDE0"/>
  <path d="M52.5449 8.08822L52.5699 8.05566L52.5767 8.06947C52.5923 8.07185 52.6079 8.07354 52.6233 8.07654C52.6375 8.07929 52.6513 8.08371 52.6654 8.08681C52.7469 8.1045 52.8292 8.11034 52.9119 8.11839L52.8699 8.16581C52.9901 9.08764 53.0272 10.0123 53.0512 10.9406C53.048 12.3617 52.9413 13.7878 52.9615 15.2074C52.8476 16.0417 52.8725 16.9606 52.8671 17.8039L52.6097 17.8232C52.6614 17.1275 52.6458 16.4226 52.6583 15.7249L52.7406 12.4087C52.7488 11.971 52.753 11.5332 52.7533 11.0953L52.7481 10.1346C52.7477 9.45248 52.6513 8.76084 52.5449 8.08822Z" fill="url(#paint0_linear_750_9584)"/>
  <path d="M52.8701 8.16602C53.676 8.7269 54.6028 9.32927 55.3583 9.93926C54.9433 10.282 53.6245 10.6811 53.0515 10.9408C53.0274 10.0125 52.9903 9.08785 52.8701 8.16602Z" fill="#FBEDE0"/>
  <path d="M26.6602 16.5605C27.552 16.6834 28.7886 17.0734 29.7096 17.2955C32.1681 17.8818 34.6207 18.4919 37.0673 19.1257C35.6255 22.1001 34.2531 25.1109 32.8354 28.0973C32.1564 29.4995 31.5004 30.9123 30.8673 32.3357C30.6081 31.3978 30.4043 30.4417 30.1584 29.4996L28.1369 21.9889C27.6528 20.1835 27.2034 18.3479 26.6602 16.5605Z" fill="#FBEDE0"/>
  <path d="M34.5215 6.98951C35.5338 6.95616 36.5642 7.06709 37.5746 7.13477L42.1318 7.43087C45.4635 7.64329 48.8034 7.71424 52.1286 8.02087C49.9659 9.46271 47.9229 11.11 45.8228 12.6437C44.9815 13.3157 44.0784 13.9375 43.2075 14.5729L37.3658 18.8221L35.4124 10.6489C35.123 9.4313 34.7317 8.22195 34.5215 6.98951Z" fill="#FBEDE0"/>
  <defs>
    <linearGradient id="paint0_linear_750_9584" x1="52.3766" y1="12.9425" x2="53.0237" y2="12.9803" gradientUnits="userSpaceOnUse">
      <stop stop-color="#40433F"/>
      <stop offset="1" stop-color="#4B4E61"/>
    </linearGradient>
  </defs>
</svg>