<svg width="48" height="56" viewBox="0 0 48 56" fill="none" xmlns="http://www.w3.org/2000/svg">
<path d="M29.4618 0.500312C32.9982 0.406453 36.5344 0.477561 40.0701 0.410047C40.7159 0.397789 41.9545 0.137652 42.5157 0.307216C42.8111 0.666401 42.8667 3.76794 42.8532 4.38787C43.7787 4.3189 44.6953 4.30563 45.447 4.9472C46.2525 5.63474 46.441 6.64196 46.4997 7.64674C46.5172 7.982 46.5303 8.31742 46.539 8.653C46.6342 11.5247 46.468 14.4095 46.4013 17.281L45.8824 33.8705L45.466 44.475L45.3446 47.8365C45.3273 48.3543 45.3609 48.9024 45.2981 49.4149C45.2606 49.7219 45.1064 49.9613 44.894 50.1811C44.234 50.8643 43.3207 51.2701 42.6101 51.8907C42.6094 52.6788 42.54 53.4811 41.9484 54.0749C41.6208 54.4039 41.223 54.5254 40.772 54.5674C39.7869 54.659 38.7462 54.591 37.7552 54.5935L31.7753 54.6317L9.69813 54.8482C8.2629 54.6168 6.58941 55.1796 5.29846 54.2834C4.57243 53.7793 4.28943 52.9892 4.14321 52.1576C3.82683 52.0248 3.52029 51.8544 3.25841 51.6316C2.661 51.1231 2.24705 50.3549 2.17585 49.5736C2.11057 48.5507 2.24356 47.4671 2.29607 46.4415L2.64984 39.9705C2.7523 37.5686 2.94426 35.1662 3.08278 32.7658C3.20468 30.6553 3.27023 28.5422 3.38446 26.4314C3.49256 24.4342 3.66663 22.4264 3.67888 20.426C3.69738 17.3985 3.65007 14.3647 3.64156 11.3364C3.63768 9.97746 3.5339 8.57366 3.6532 7.22036C3.69402 6.75769 3.78265 6.28742 4.00441 5.87429C4.47477 4.99831 5.2006 4.72745 6.09289 4.4661C6.08654 3.31443 6.22104 2.16955 6.19124 1.01865C7.10279 1.01855 8.01718 0.969369 8.9288 0.951378C11.0324 0.926464 13.1357 0.882654 15.2386 0.819946L29.4618 0.500312Z" fill="#0A0A09"/>
<path d="M3.43378 34.9223C3.45127 34.3093 3.65752 29.8873 3.7799 29.6854C3.87888 31.3347 3.83376 33.0078 3.87994 34.661C3.7302 34.7464 3.57952 34.8302 3.43378 34.9223Z" fill="#FBEDE0"/>
<path d="M2.68206 49.2561C2.81578 49.1464 3.12886 49.1824 3.30313 49.1308C3.56792 49.0526 3.87504 48.7911 4.10999 48.6369C4.14764 49.6667 4.20497 50.7072 4.18083 51.7374C3.46756 51.2547 2.91679 50.646 2.73383 49.781C2.6979 49.6108 2.68196 49.4301 2.68206 49.2561Z" fill="#FBEDE0"/>
<path d="M43.6606 4.82107C44.2656 4.86332 44.8184 4.94214 45.2774 5.38621C46.0756 6.15862 46.0377 7.45893 46.0603 8.48452C45.6503 9.07618 44.2707 9.99364 43.6395 10.4327C43.6874 9.58423 43.6832 8.72961 43.6953 7.87989C43.7098 6.85876 43.7391 5.84044 43.6606 4.82107Z" fill="#FBEDE0"/>
<path d="M3.87994 34.661C3.88345 34.8333 3.8797 35.0078 3.89084 35.1796C3.87786 36.6336 3.93361 38.0828 3.96318 39.5359C3.98325 40.5247 3.97045 41.5122 4.00406 42.5013C4.07332 44.5366 4.18765 46.603 4.10876 48.6376C3.87381 48.7918 3.5667 49.0534 3.30191 49.1316C3.12763 49.1832 2.81455 49.1471 2.68084 49.2568L3.42069 35.3309C3.40914 35.2033 3.42939 35.0518 3.43378 34.9223C3.57952 34.8302 3.7302 34.7464 3.87994 34.661Z" fill="#FBEDE0"/>
<path d="M31.2666 0.970715C34.8823 0.832789 38.4981 0.936473 42.1113 0.772165C42.2115 1.40113 42.2846 2.03325 42.3304 2.66851C39.6201 2.66763 36.91 2.69547 34.2002 2.75203C33.4996 2.04596 31.7521 1.52221 31.2666 0.970715Z" fill="#FBEDE0"/>
<path d="M42.2415 3.16248L42.3219 3.17733C42.4741 3.38064 42.3595 4.12511 42.345 4.40149L17.4243 4.43606C13.8862 4.415 10.3481 4.41697 6.80995 4.44195L6.62846 4.42867L6.56717 4.33767C6.54523 4.18725 6.55281 4.12317 6.60638 3.98087C6.75485 3.87526 7.05482 3.87627 7.23683 3.8656C11.1273 3.63721 15.0418 3.66868 18.9373 3.5877L26.2992 3.39891C27.4201 3.36143 28.5411 3.27984 29.6623 3.25757C31.4007 3.22308 33.1409 3.27741 34.8797 3.243C37.3255 3.19469 39.7977 3.0511 42.2415 3.16248Z" fill="#FBEDE0"/>
<path d="M6.71643 1.55553C7.74576 1.44029 8.79693 1.47546 9.83151 1.47004C10.892 1.46059 11.9521 1.43533 13.0119 1.39427L31.2666 0.970715C31.7521 1.52221 33.4996 2.04596 34.2002 2.75203C32.4434 2.75844 30.6784 2.76086 28.9223 2.80931C27.3813 2.85174 25.8415 2.94078 24.2997 2.98177C22.7053 3.02431 21.1092 3.03117 19.5144 3.06101C15.2414 3.14111 10.9195 3.08292 6.65865 3.41636C6.62541 2.79447 6.64467 2.1742 6.71643 1.55553Z" fill="#FBEDE0"/>
<path d="M46.0603 8.48452C45.9541 18.2644 45.6754 28.0393 45.2237 37.8094C45.114 40.0413 45.0246 42.274 44.9557 44.5076C44.9267 45.6806 44.8839 46.853 44.8271 48.025C44.8048 48.5363 44.8228 49.0827 44.7599 49.5882C44.1949 50.284 43.3135 50.7242 42.6481 51.3302C42.7568 40.8926 42.9496 30.4566 43.2264 20.0222C43.3176 16.8242 43.5408 13.6312 43.6395 10.4327C44.2707 9.99364 45.6503 9.07618 46.0603 8.48452Z" fill="#FBEDE0"/>
<path d="M43.0657 4.89787C43.1248 4.91141 43.1708 4.90274 43.2028 4.96057C43.2778 5.09602 43.2696 5.30317 43.2662 5.45462C43.2354 6.81047 43.2813 8.16911 43.2433 9.52543C43.1437 13.085 42.8882 16.6475 42.7513 20.2072C42.7059 21.3862 42.7231 22.5666 42.6922 23.7459L42.4327 33.85C42.3378 38.8631 42.3531 43.879 42.2172 48.8917C42.1945 49.7312 42.2087 52.421 42.0016 53.0894C41.8812 53.4775 41.6469 53.7495 41.2797 53.9236C40.9484 54.0807 40.629 54.1171 40.2689 54.1301C38.5816 54.1912 36.8731 54.1329 35.1833 54.1368C31.7781 54.1738 28.3728 54.1917 24.9673 54.1906L14.8379 54.3151C12.3002 54.353 9.74252 54.4136 7.20533 54.3661C6.82366 54.3589 6.42569 54.3507 6.06714 54.2062C5.41522 53.9437 5.04095 53.4597 4.76667 52.835C4.64667 52.3018 4.67569 51.7194 4.66464 51.1746C4.63793 49.854 4.67646 48.5334 4.64762 47.2136L4.2747 29.7786C4.20595 27.0541 4.17776 24.3292 4.19012 21.6039L4.13667 9.33762C4.13233 8.54439 4.06667 7.68421 4.15992 6.8992C4.16693 6.84211 4.17624 6.78541 4.18783 6.72912C4.1995 6.67283 4.21341 6.61711 4.22959 6.56194C4.24572 6.5067 4.26409 6.45224 4.28471 6.39856C4.30532 6.34488 4.32808 6.29212 4.35299 6.24029C4.37788 6.18852 4.40483 6.13781 4.43382 6.08817C4.46288 6.03854 4.49389 5.99016 4.52684 5.94301C4.55978 5.89592 4.5946 5.85023 4.6313 5.80591C4.66799 5.76167 4.70643 5.71897 4.74662 5.67783C5.14208 5.27326 5.70099 5.03052 6.26092 4.96916C7.26195 4.85941 8.33021 4.93429 9.33747 4.93887C11.2301 4.94744 13.126 4.96522 15.0185 4.93903C18.8011 4.8867 22.5804 4.93188 26.3627 4.9324L43.0657 4.89787Z" fill="#FBEDE0"/>
<path d="M29.9705 8.61358L29.9964 8.62421C30.0683 8.73551 30.0651 8.72846 30.0415 8.85918C29.9317 8.94103 29.8848 8.96546 29.748 8.97226C28.7278 9.02287 27.6692 8.95282 26.6443 8.9496C24.4212 8.94278 22.2045 8.95143 19.9842 9.07444C19.8931 9.02722 19.864 8.99184 19.8119 8.90392L19.8603 8.832C20.5769 8.49143 28.7092 8.54932 29.9705 8.61358Z" fill="#0A0A09"/>
<path d="M39.9694 8.04946L39.9876 8.05941C40.027 8.11511 40.0434 8.15468 40.0483 8.22343C40.0765 8.61467 40.035 9.02203 40.033 9.41509C40.0298 10.079 40.0623 10.746 40.0791 11.4099C40.1353 13.4071 40.176 15.4046 40.2014 17.4025C40.2176 18.144 40.3389 19.3457 40.2582 20.0362C40.2423 20.1734 40.2196 20.3184 40.1106 20.405C39.8156 20.0861 39.7614 14.4846 39.7357 13.5901C39.6975 11.8495 39.7176 10.1096 39.796 8.37043C37.3834 8.32755 34.972 8.6266 32.5591 8.40516C33.6318 8.10227 34.7354 8.13154 35.8396 8.10645C37.2159 8.07523 38.5942 8.08376 39.9694 8.04946Z" fill="#0A0A09"/>
<path d="M17.6889 8.13879C17.7265 8.14042 17.7919 8.14164 17.8268 8.15158C17.9355 8.18266 17.9501 8.23729 17.9967 8.3293L17.963 8.41498C17.7997 8.503 17.623 8.51247 17.4407 8.5177C15.8574 8.56326 14.2597 8.48465 12.673 8.50669C10.9946 8.52996 9.24396 8.7001 7.57661 8.52762C7.67635 9.843 7.7838 11.1643 7.83046 12.4827C7.8873 14.0882 7.87154 15.6939 7.90825 17.2994C7.92893 18.2049 8.12557 19.3802 7.98605 20.2444C7.8858 20.2672 7.79551 20.2929 7.69194 20.2757C7.64076 20.2673 7.63755 20.2717 7.6156 20.2306C7.42217 19.868 7.49295 13.3559 7.41183 12.252C7.34026 11.2774 7.04669 9.10865 7.25225 8.20987C7.28161 8.18643 7.30452 8.15082 7.34042 8.13956C7.54681 8.07482 10.1029 8.15146 10.5332 8.1512C12.9116 8.14984 15.314 8.01716 17.6889 8.13879Z" fill="#0A0A09"/>
<path d="M9.26507 10.0933C13.4473 10.054 17.631 9.80915 21.8115 9.68367C25.0675 9.60833 28.324 9.58298 31.5808 9.60764C33.1844 9.61484 34.7855 9.56973 36.3898 9.60026C36.9815 9.61154 37.5994 9.59125 38.1844 9.66966C38.2367 10.7961 38.2755 11.9567 38.2518 13.083C38.4729 16.9214 38.5047 20.773 38.6273 24.6154C38.8367 30.8321 39.112 37.0458 39.4532 43.2566C39.5802 45.4068 39.5673 47.572 39.7806 49.7158C37.6335 49.6594 35.5008 49.7215 33.3554 49.7173L18.6858 49.7085C16.1719 49.7337 13.6579 49.7433 11.1439 49.7375C10.233 49.7412 9.32124 49.7796 8.41015 49.7687C8.24118 49.7666 8.02753 49.7753 7.87427 49.7011C7.81095 49.1218 7.85761 48.5262 7.85523 47.9438L7.82579 44.3622C7.81874 42.3822 7.77628 40.4039 7.78165 38.4235C7.78299 37.9548 7.75343 37.478 7.76592 37.0111C7.77026 36.8513 7.78722 36.7271 7.86078 36.585L7.94692 36.5434C8.01881 36.5767 8.07899 36.5788 8.10813 36.6584C8.24597 37.0354 8.15987 39.0363 8.1624 39.5668L8.22115 45.8154C8.22806 46.644 8.24406 47.4725 8.26917 48.3007C8.27783 48.6763 8.25933 49.0607 8.29247 49.4343C10.1345 49.3889 11.9754 49.4 13.8177 49.3876C17.1347 49.3546 20.4518 49.3413 23.7689 49.3477L39.37 49.3407C39.3487 44.7482 38.9353 40.1462 38.6895 35.5619C38.44 30.5387 38.2911 25.5126 38.2428 20.4835C38.2183 18.8054 38.1573 17.1266 38.1138 15.4488C38.0973 14.8133 38.0008 13.9234 38.0778 13.3175C38.0028 12.1888 37.9917 11.047 37.9906 9.91623C33.5953 9.80598 29.1837 9.92594 24.789 10.0095L15.1254 10.2805C13.2537 10.3366 11.3757 10.3505 9.50567 10.4463C9.33631 15.5002 9.26019 20.5555 9.27731 25.6123C9.28527 27.732 9.26301 29.8516 9.31628 31.9712C9.37602 34.3496 9.52599 36.7292 9.63457 39.1061C9.74474 42.0717 9.87262 45.0366 10.0182 48.0008L37.5864 47.7472C37.5288 44.2751 37.5299 40.8029 37.5896 37.3308C37.5958 36.7229 37.5957 36.1177 37.5736 35.5099C37.5597 35.1311 37.4918 34.6677 37.5377 34.2957C37.5447 34.2392 37.5583 34.2179 37.5805 34.1718C37.703 34.1138 37.7022 34.1161 37.8339 34.1496C37.8561 34.1806 37.8882 34.2067 37.9006 34.2427C37.9543 34.3997 37.9005 35.2372 37.9009 35.4618C37.9038 36.8957 37.939 38.3296 37.9311 39.7648C37.9218 41.4553 37.8715 43.143 37.886 44.834C37.8922 45.5533 37.8991 46.275 37.9361 46.9933C37.9505 47.2747 38.0184 47.5721 38.0022 47.8514C37.9988 47.9094 38.0067 47.9801 37.952 48.0132C37.7428 48.1397 37.2004 48.1077 36.9536 48.1121L17.6227 48.2683C16.1275 48.28 14.6315 48.3238 13.1365 48.3538C12.0016 48.3765 10.7777 48.4621 9.65914 48.2493C9.53799 47.4841 9.54965 46.6596 9.52156 45.8838C9.46678 44.3686 9.4406 42.8509 9.36516 41.3367L9.03066 35.6989C8.95548 34.1772 8.94909 32.6513 8.91607 31.1282C8.89528 30.171 8.83873 29.2127 8.83142 28.2556C8.82438 27.3319 8.88974 26.4058 8.90811 25.4822L8.99805 19.3719C9.01694 17.2458 9.06248 15.1203 9.13467 12.9953C9.16765 12.0343 9.15913 11.049 9.26507 10.0933Z" fill="#0A0A09"/>
<path d="M29.368 31.7813C29.3224 29.695 29.5789 28.0275 31.0675 26.4646C31.5727 25.9343 32.7974 24.9999 33.5486 25.0208C33.6688 25.0241 33.7803 25.069 33.8556 25.1641C34.1724 25.5639 34.1078 26.9236 34.0239 27.4251C33.756 29.0271 32.7091 30.3778 31.389 31.2926C30.7301 31.7493 30.0485 31.8637 29.5138 32.1981C28.5139 32.8236 27.6068 34.0167 26.586 34.7484C26.3684 34.9044 25.7772 35.1787 25.7258 35.4448C25.7916 35.532 25.7517 35.5104 25.8611 35.529C26.1855 35.5841 26.5669 35.404 26.8178 35.2108C27.2096 34.9091 27.5602 34.5051 27.9357 34.1749C29.9795 32.3784 31.4773 30.8476 34.3383 30.5931C34.9614 30.5376 35.6103 30.5091 36.2329 30.5699C36.5387 30.5997 36.9284 30.6563 37.1247 30.9212C37.2171 31.0457 37.2343 31.1953 37.2012 31.3426C37.0578 31.9802 36.1178 32.659 35.5837 32.9744C33.9027 33.9669 31.9733 33.7463 30.1635 33.2687C29.9998 33.2248 29.837 33.1773 29.6752 33.1264C28.8978 33.6977 28.1826 34.3824 27.4555 35.017C29.4026 34.3944 31.2537 34.0825 33.1671 35.0618C33.5857 35.2759 34.3652 35.7029 34.5256 36.1665C34.5723 36.3013 34.5415 36.413 34.4773 36.5349C34.1947 37.0717 33.4478 37.3555 32.8906 37.5101C31.015 38.0308 28.8064 37.8617 27.1026 36.8836C26.6859 36.6443 26.2993 36.3517 25.919 36.0588C24.0118 37.6161 22.6055 40.341 20.9256 42.1998C21.2905 42.0014 21.7754 41.8086 22.093 41.543C22.4465 41.2474 22.7009 40.8468 23.0709 40.5636C25.2177 38.9198 27.8175 38.1957 30.4545 38.976C30.7529 39.0643 31.0937 39.187 31.2406 39.484C31.3226 39.6498 31.3191 39.8302 31.256 40.0006C30.9573 40.8077 29.6675 41.561 28.9157 41.8774C27.2454 42.5802 24.4551 42.9456 22.7391 42.2251C22.5333 42.1388 22.3338 42.0282 22.1409 41.9166C21.3319 42.3894 20.5158 42.8382 19.7751 43.4165C20.0217 44.0145 21.1141 46.9833 20.9905 47.4258C20.972 47.492 20.9326 47.4891 20.876 47.5145C20.6762 47.4186 20.585 47.1415 20.5159 46.9449C20.1055 45.7774 19.8892 44.3008 19.2875 43.2381C16.7301 43.4516 14.8935 43.0415 12.8978 41.3485C12.4739 40.9888 11.5801 40.2385 11.5158 39.662C11.5073 39.5854 11.5268 39.5184 11.5481 39.4459C11.9546 39.0358 13.5321 38.98 14.0988 38.976C15.4872 38.9662 16.938 39.3757 17.9397 40.3814C18.2309 40.6739 18.4836 41.0043 18.7353 41.3308C18.5227 40.6322 18.3693 39.9157 18.1485 39.221C16.0602 38.6401 14.2626 37.6032 13.1637 35.6749C12.4301 34.3875 12.2015 33.0313 12.0923 31.5741C12.0651 31.2117 12.0014 30.7719 12.0877 30.4163C12.1041 30.3486 12.1347 30.3034 12.1806 30.2527C12.4626 30.1461 12.7656 30.2805 13.0262 30.3977C14.9559 31.2667 16.3717 32.9462 17.1004 34.9116C17.4564 35.8721 17.7227 36.894 17.9601 37.8899C17.7457 35.4886 17.6703 33.3522 19.2952 31.4057C19.4785 31.1871 19.6639 30.9703 19.8514 30.7553C20.0636 30.4823 20.6786 29.3534 20.8703 29.2448C20.9053 29.2249 20.9497 29.2306 20.9895 29.2235C21.2363 29.3826 21.3065 29.7523 21.3653 30.0241C21.7375 31.7453 22.2243 32.3763 23.5475 33.5213C23.8389 33.2355 24.1241 32.9285 24.4431 32.6737C24.2497 31.2079 24.5599 30.0443 25.0202 28.6593C25.084 28.4993 25.1239 28.3786 25.2615 28.2695C25.4459 28.2156 25.5784 28.2553 25.7416 28.349C26.3205 28.6814 26.8784 29.4 27.1402 30.0051C27.6066 31.6495 27.2066 32.9033 26.4545 34.3942C27.4951 33.6088 28.4428 32.6975 29.368 31.7813Z" fill="#0A0A09"/>
<path d="M20.2075 30.9655C20.457 30.5869 20.6737 30.2011 20.8853 29.8009C21.0419 30.5462 21.2353 31.2539 21.4951 31.9709C21.0003 31.7377 20.6036 31.3338 20.2075 30.9655Z" fill="#FBEDE0"/>
<path d="M23.5475 33.5213C23.8389 33.2355 24.1241 32.9285 24.4431 32.6737C24.5835 33.4145 24.7898 34.0998 25.1175 34.7797C24.5797 34.3789 24.0657 33.9467 23.5475 33.5213Z" fill="#FBEDE0"/>
<path d="M23.1158 35.4489C23.1569 35.5073 23.1718 35.5484 23.1803 35.62C23.3149 36.7636 22.6403 38.1621 21.9561 39.0361C21.4823 39.6413 20.9211 40.173 20.4507 40.7846C20.4271 40.8166 20.3833 40.8502 20.3539 40.8777C20.346 40.853 20.3325 40.8294 20.3303 40.8036C20.3071 40.5268 20.4415 40.0895 20.5099 39.8168C20.9729 37.9714 21.8963 36.8391 23.1158 35.4489Z" fill="#FBEDE0"/>
<path d="M36.2377 30.9577C36.4168 30.971 36.6381 30.981 36.7875 31.0908C36.85 31.1368 36.84 31.1665 36.8551 31.2367C36.602 31.7862 35.9149 32.2921 35.406 32.5935C33.766 33.5649 32.0209 33.3664 30.2584 32.9059C31.6417 32.5017 33.0864 32.3337 34.4752 31.9232C34.6949 31.8362 34.8986 31.7268 35.1062 31.615C33.8549 31.5278 31.5226 32.1901 30.2736 32.5682C31.9653 31.184 34.0921 30.7758 36.2377 30.9577Z" fill="#FBEDE0"/>
<path d="M25.4239 28.6953C25.4949 28.7277 25.5603 28.7595 25.6271 28.7999C26.3303 29.2268 26.801 29.8904 26.9654 30.6968C27.2423 32.0552 26.6365 33.4835 25.8972 34.5942C25.8558 33.3093 25.943 32.0017 25.9379 30.7132C25.9284 30.5907 25.9278 30.4478 25.8367 30.362C25.5568 30.8287 25.6725 32.8828 25.6474 33.5298C25.6321 33.9296 25.5903 34.3193 25.5274 34.7143C25.3989 34.4993 25.2679 34.2791 25.168 34.0494C24.4035 32.2926 24.7579 30.4168 25.4239 28.6953Z" fill="#FBEDE0"/>
<path d="M31.1722 34.8461C32.2841 35.0191 33.399 35.4818 34.1945 36.2956C33.566 36.9322 32.7441 37.1896 31.8824 37.3323C29.8564 37.668 27.8963 37.0765 26.2392 35.8993C27.1618 36.1997 28.1879 36.2613 29.1469 36.3762C30.4115 36.5063 31.8826 36.6328 33.1248 36.3494C32.4988 36.2183 31.8469 36.1913 31.2105 36.1375C29.7085 36.0106 28.1951 35.955 26.7079 35.7026C28.0168 34.9423 29.6788 34.6414 31.1722 34.8461Z" fill="#FBEDE0"/>
<path d="M33.4342 25.3764C33.4717 25.4223 33.5068 25.4652 33.5334 25.5184C33.8672 26.1859 33.7416 27.4028 33.518 28.1001C32.9896 29.7475 31.556 30.8198 30.0782 31.5713C30.5285 30.9121 30.8912 30.1926 31.2766 29.4949C31.812 28.5258 32.3882 27.6184 32.6902 26.5431C32.3604 26.9221 32.1129 27.4285 31.8535 27.8599C31.4002 28.6134 30.9362 29.3632 30.5041 30.1288C30.2451 30.5876 30.0161 31.1004 29.6567 31.4893C29.6601 30.3725 29.7575 29.3113 30.2335 28.2878C30.9029 26.8488 31.9442 25.9125 33.4342 25.3764Z" fill="#FBEDE0"/>
<path d="M14.9258 39.3778C15.3338 39.4199 15.7626 39.5023 16.1492 39.6404C17.4902 40.1194 18.4144 41.3139 19.0056 42.5608C17.8179 41.7323 15.8737 40.549 14.4561 40.366C14.3321 40.3499 14.2334 40.3256 14.1351 40.4058C14.303 40.6984 16.2055 41.3782 16.6515 41.584C17.4401 41.9568 18.2069 42.3664 18.8899 42.9137C18.0702 42.9737 17.1724 42.8905 16.3724 42.7029C14.7325 42.3184 12.7906 41.1463 11.8907 39.6935C12.8201 39.3338 13.9444 39.2978 14.9258 39.3778Z" fill="#FBEDE0"/>
<path d="M20.2075 30.9655C20.6036 31.3338 21.0003 31.7377 21.4951 31.9709C21.6479 32.2412 21.7314 32.4592 21.7414 32.7727C21.7938 34.4079 20.422 36.4087 19.3507 37.5569C19.8793 36.4449 20.6592 34.7269 20.8298 33.5384C20.8719 33.2444 20.9265 32.5326 20.7564 32.3047C20.6381 32.345 20.6174 32.6771 20.5981 32.8002C20.3456 34.402 19.3867 37.119 18.4582 38.4456C18.3141 37.6628 18.2108 36.88 18.1824 36.0841C18.1001 33.7855 18.6814 32.6047 20.2075 30.9655Z" fill="#FBEDE0"/>
<path d="M29.2244 39.064C29.2439 39.0647 29.2636 39.0642 29.283 39.0661C29.6745 39.1054 30.5088 39.1822 30.7526 39.5155C30.8383 39.6328 30.8425 39.7828 30.8001 39.9164C30.5921 40.5704 29.5788 41.145 28.9943 41.4243C27.0715 42.3427 24.6524 42.5283 22.6355 41.824C23.1706 41.6241 23.7702 41.5145 24.3256 41.3758C25.3727 41.106 26.4246 40.8562 27.4813 40.6266C27.9832 40.5283 28.6086 40.4645 29.0575 40.2192L29.0498 40.1647C27.6335 39.8637 24.1805 41.1195 22.6664 41.4647C22.7985 41.3184 22.9307 41.1769 23.0789 41.0467C24.7948 39.5399 26.9704 38.9272 29.2244 39.064Z" fill="#FBEDE0"/>
<path d="M12.4547 30.5856C12.6616 30.6569 12.8641 30.739 13.0622 30.8318C13.2602 30.9247 13.4528 31.0278 13.6399 31.1412C14.1913 31.4784 14.6732 31.9237 15.1079 32.399C16.7124 34.1532 17.1544 36.113 17.7015 38.3363C17.3741 37.8629 17.0392 37.391 16.7339 36.9031C16.2193 36.0808 14.7172 33.3015 13.9784 33.0059L13.9428 33.0528L14.0706 33.2671C14.4942 33.9359 14.945 34.5885 15.3565 35.2649C16.0836 36.4607 16.7435 37.6216 17.5965 38.7356C16.238 38.2004 14.9607 37.4603 14.0395 36.3001C12.8302 34.777 12.2374 32.5104 12.4547 30.5856Z" fill="#FBEDE0"/>
<path d="M22.0517 32.756C22.4407 33.0279 22.7502 33.4656 23.1209 33.7714C23.7639 34.3015 24.4788 34.7503 25.1449 35.2524C25.353 35.4092 25.4329 35.6157 25.5437 35.8453C24.9625 36.7062 24.1571 37.4295 23.5131 38.249C22.3249 39.7612 21.2881 41.3689 19.9866 42.7915C20.0782 42.4067 20.1457 41.936 20.3182 41.5786C20.5001 41.2016 20.8501 40.861 21.1223 40.5436C22.2529 39.2254 23.3126 38.026 23.496 36.2238C23.5283 35.9486 23.5355 35.6254 23.4905 35.3524C23.4593 35.1642 23.4104 35.0556 23.2522 34.9473C23.1708 34.9456 23.12 34.9504 23.0456 34.989C22.7236 35.1565 22.3399 35.7654 22.1109 36.0505C21.0852 37.3275 20.3785 38.6499 20.108 40.2899C19.9544 41.2205 19.8665 42.1363 19.6503 43.0583C19.1136 41.7789 18.7624 40.3398 18.4654 38.9885C18.81 38.468 19.3182 38.1304 19.7464 37.6885C21.1443 36.2453 21.7607 34.7086 22.0517 32.756Z" fill="#FBEDE0"/>
<path d="M16.1675 29.0362C15.9557 28.7999 15.5999 28.6198 15.3411 28.431C14.5932 27.8855 14.1296 27.1331 13.7098 26.3177C12.7333 24.421 12.694 22.1879 13.337 20.1794C14.1319 17.6964 15.8643 15.7565 18.1788 14.5833C20.2709 13.5228 22.9623 13.5839 25.1495 14.3087C27.355 15.0397 29.1238 16.4805 30.1682 18.5642C31.6455 21.512 31.2038 23.7863 30.2133 26.75C29.728 28.2022 28.4805 29.3421 27.1402 30.0051C26.8784 29.4 26.3205 28.6814 25.7416 28.349C25.5784 28.2553 25.4459 28.2156 25.2615 28.2695C25.1239 28.3786 25.084 28.4993 25.0202 28.6593C24.5599 30.0443 24.2497 31.2079 24.4431 32.6737C24.1241 32.9285 23.8389 33.2355 23.5475 33.5213C22.2243 32.3763 21.7375 31.7453 21.3653 30.0241C21.3065 29.7523 21.2363 29.3826 20.9895 29.2235C20.9497 29.2306 20.9053 29.2249 20.8703 29.2448C20.6786 29.3534 20.0636 30.4823 19.8514 30.7553C18.8553 30.1513 17.7753 29.7073 16.6978 29.2748C15.5729 29.5693 14.7223 29.6278 13.5943 29.771C13.2757 29.8114 12.7712 29.9691 12.4667 29.8938L12.4409 29.8332C12.7866 29.2993 14.289 29.3595 14.8797 29.2874C15.3163 29.2341 15.7421 29.1463 16.1675 29.0362Z" fill="#0A0A09"/>
<path d="M23.3585 17.8882C23.4161 17.9477 23.393 17.918 23.4414 17.9953C23.5653 18.1931 23.687 18.4142 23.8448 18.587C24.5953 19.4094 25.6611 19.7959 26.0946 20.9113C26.4345 21.7856 26.2005 22.9324 25.8383 23.7633C25.3222 24.9467 23.9923 26.3438 22.7715 26.8038C22.2317 27.0072 21.8548 26.9521 21.3454 26.7309C20.3602 26.104 19.525 25.1547 19.0172 24.1023C18.6931 23.4303 18.2526 22.2933 18.5338 21.5508C18.8751 20.6492 20.4978 20.3766 21.3023 19.9937C22.2993 19.5191 22.9776 18.9471 23.3585 17.8882Z" fill="#FBEDE0"/>
<path d="M23.1648 15.008C23.9056 15.1318 24.5805 15.3377 25.2096 15.7595C26.9859 16.9504 27.5288 18.91 27.2321 20.9428C27.0837 21.9585 26.7591 23.0681 26.9675 24.095C27.2068 25.2743 28.2094 25.7823 29.1305 26.3948C28.2095 27.0028 26.8346 27.284 25.7477 27.0886C25.4209 27.0299 24.788 26.8978 24.6153 26.5911C24.5136 26.4105 24.5337 26.1866 24.6397 26.0109C24.786 25.7686 25.0782 25.5839 25.277 25.3814C25.9246 24.7216 26.3621 23.7818 26.5289 22.8797C26.7871 21.4829 26.5017 20.2781 25.3684 19.3656C24.8216 18.9254 24.2827 18.57 23.8789 17.9841C23.708 17.6797 23.6711 17.1837 23.4218 16.9483C23.3473 16.8778 23.3218 16.8809 23.2257 16.8799C23.0852 17.039 23.0051 17.744 22.8879 18.0144C22.277 19.4224 20.6036 19.8252 19.3102 20.3522C18.8183 20.5525 18.3371 20.8579 18.1378 21.375C17.7546 22.3696 18.4155 23.7592 18.8252 24.6588C18.6847 24.9963 18.4889 25.3472 18.2464 25.6219C18.0044 25.8962 17.6792 26.13 17.3005 26.1396C17.0103 26.1468 16.6326 25.9977 16.4173 25.8032C16.3924 25.6119 16.7807 25.0737 16.875 24.8471C17.0114 24.5193 17.1128 24.1758 17.1962 23.831C17.5592 22.3316 17.4725 20.755 17.6987 19.2314C17.8989 17.883 18.3757 16.4898 19.5182 15.6528C20.5759 14.8779 21.9136 14.819 23.1648 15.008Z" fill="#FBEDE0"/>
<path d="M16.1675 29.0362C15.9557 28.7999 15.5999 28.6198 15.3411 28.431C14.5932 27.8855 14.1296 27.1331 13.7098 26.3177C12.7333 24.421 12.694 22.1879 13.337 20.1794C14.1319 17.6964 15.8643 15.7565 18.1788 14.5833C20.2709 13.5228 22.9623 13.5839 25.1495 14.3087C27.355 15.0397 29.1238 16.4805 30.1682 18.5642C31.6455 21.512 31.2038 23.7863 30.2133 26.75C29.728 28.2022 28.4805 29.3421 27.1402 30.0051C26.8784 29.4 26.3205 28.6814 25.7416 28.349C25.5784 28.2553 25.4459 28.2156 25.2615 28.2695C25.1239 28.3786 25.084 28.4993 25.0202 28.6593C24.5599 30.0443 24.2497 31.2079 24.4431 32.6737C24.1241 32.9285 23.8389 33.2355 23.5475 33.5213C22.2243 32.3763 21.7375 31.7453 21.3653 30.0241C21.3065 29.7523 21.2363 29.3826 20.9895 29.2235C20.9497 29.2306 20.9053 29.2249 20.8703 29.2448C20.6786 29.3534 20.0636 30.4823 19.8514 30.7553C18.8553 30.1513 17.7753 29.7073 16.6978 29.2748C17.3995 29.067 18.09 28.7934 18.6282 28.2802C19.4198 27.5254 19.5148 26.6296 19.536 25.5977C20.1506 26.3452 20.891 27.1785 21.9112 27.3169C22.7483 27.4305 23.4477 26.9621 24.0804 26.4855C24.1884 26.8553 24.4414 27.1863 24.5216 27.5601C24.6107 27.9756 23.9625 28.7573 23.7404 29.1125C23.7888 29.2047 23.8358 29.2421 23.9129 29.31C23.989 29.3342 24.0495 29.3542 24.1306 29.3349C24.4763 29.2532 24.718 28.8977 24.9034 28.6218C25.0644 28.2628 25.1193 28.0326 24.9766 27.6546C24.927 27.5207 24.8698 27.39 24.8049 27.2627C26.2178 27.7824 27.6901 27.6139 29.0475 26.9772C29.2685 26.8736 29.5608 26.7331 29.6825 26.511C29.7052 26.4694 29.704 26.4477 29.708 26.4055C29.1923 25.6462 27.8598 25.3609 27.4929 24.42C27.202 23.6743 27.325 22.8284 27.4479 22.0634C27.7922 19.9173 27.9783 18.0822 26.4382 16.3223C25.6068 15.3725 24.5368 14.86 23.3088 14.6302C21.9657 14.3788 20.4622 14.4961 19.315 15.2996C18.1039 16.1479 17.5531 17.6361 17.3177 19.0389C16.8638 21.7426 17.3759 23.1065 15.8994 25.7745L15.9407 25.8239C16.2488 26.187 16.6178 26.4791 17.1089 26.5231C17.5586 26.5633 18.0013 26.3886 18.3357 26.0927C18.5547 25.8992 18.9588 25.1315 19.0858 25.0667L19.0309 25.0818L19.0802 25.0563C19.2753 25.501 19.0964 26.651 18.9107 27.1229C18.6118 27.8823 18.0019 28.3497 17.2728 28.6573C16.9161 28.8078 16.539 28.9272 16.1675 29.0362Z" fill="#FBEDE0"/>
</svg>
