<svg xmlns="http://www.w3.org/2000/svg" width="104" height="56" viewBox="0 0 104 56" fill="none">
  <g clip-path="url(#clip0_750_9703)">
    <path d="M89.2352 49.9396C89.4334 50.2764 89.4304 50.8174 89.4815 51.2084C78.8107 51.0284 68.139 50.9373 57.4665 50.9353L15.1772 50.4928C14.9864 50.0852 14.8764 49.6944 14.7765 49.2562C30.2864 49.5312 45.7974 49.6827 61.3096 49.7107L78.5998 49.7666C82.1374 49.7847 85.7044 49.7254 89.2352 49.9396Z" fill="#FBEDE0"/>
    <path d="M89.1755 5.50365C89.4502 5.9778 89.2078 7.57391 89.1795 8.16317C87.065 8.05908 84.935 8.06766 82.818 8.01995C76.597 7.87767 70.3751 7.80202 64.1523 7.79298C47.7957 7.66238 31.4409 7.41143 15.0881 7.04011L15.0536 7.02818C14.7905 6.59839 14.9765 5.10659 14.9842 4.55183C19.6552 4.75798 24.3452 4.78525 29.0204 4.84464L47.6431 5.04709L89.1755 5.50365Z" fill="#FBEDE0"/>
    <path d="M89.1047 9.01986C89.3599 10.0813 89.1215 13.111 89.1585 14.3925C89.4923 25.9525 88.9724 37.524 89.2469 49.0847C83.8352 49.1858 78.4081 49.0007 72.9954 48.9697C63.385 49.0074 53.7749 48.9706 44.1652 48.8593L25.0858 48.68C21.7255 48.6284 18.2625 48.7238 14.9196 48.387C14.7835 47.1924 14.9125 45.9285 14.899 44.7208L14.7959 36.9315C14.7517 27.2382 14.8051 17.5454 14.9561 7.85319C18.7485 7.77384 22.5639 8.02505 26.3586 8.07605L53.9785 8.44604C62.4305 8.47455 70.8817 8.57735 79.3318 8.75447C82.5762 8.83553 85.8732 8.72867 89.1047 9.01986Z" fill="#FBEDE0"/>
    <path d="M79.0637 10.2941C79.5076 11.799 79.1664 12.5333 80.1628 14.1704C81.3514 16.123 83.2019 17.3356 85.4065 17.8624C85.2977 23.2865 85.4458 28.7296 85.4379 34.1561C85.4346 36.389 85.5933 38.7935 85.3421 41.007C83.1946 40.8989 81.1307 40.8777 79.3391 42.2521C77.6606 43.54 77.0975 45.1982 76.8437 47.2404C75.5145 47.3338 74.1078 47.2134 72.7711 47.2091L64.9698 47.243C51.7419 47.3 38.5014 46.8013 25.2745 47.0216L25.1774 45.9231C24.986 44.4606 24.525 43.1975 23.5341 42.0832C22.0097 40.3689 20.1595 40.0248 17.9754 39.8811C17.9972 31.9123 17.846 23.9252 17.7502 15.956C18.9426 15.8245 20.0374 15.5983 21.0834 14.9824C23.0963 13.7978 24.1947 11.8145 24.7485 9.60698C33.0571 9.91748 41.3827 9.74749 49.6945 9.82495L79.0637 10.2941Z" fill="#22201F"/>
    <path d="M78.4727 10.978C78.6873 11.4122 78.6609 12.583 79.0954 13.5406C80.2697 16.1277 82.1289 17.4292 84.716 18.4087C84.792 25.6937 84.7842 32.9787 84.6927 40.2636C82.789 40.204 80.9926 40.3563 79.356 41.4188C77.4143 42.6797 76.6728 44.4327 76.1936 46.6172C71.4818 46.3682 66.7326 46.6335 62.0151 46.5664C49.9842 46.403 37.9528 46.3285 25.921 46.343L25.7533 45.1212C25.4335 43.8159 24.965 42.6758 24.0722 41.6519C22.6392 40.0087 20.7608 39.3987 18.6422 39.2625C18.8335 36.8655 18.5987 34.3151 18.5711 31.9056L18.435 16.5622C19.4786 16.3978 20.5447 16.0419 21.4619 15.5145C23.4719 14.359 24.6514 12.5378 25.2308 10.3277C27.7563 10.4689 30.3201 10.4144 32.8509 10.4342L47.3363 10.4984C52.2069 10.5446 57.0769 10.6288 61.9462 10.7513L78.4727 10.978Z" fill="#FBEDE0"/>
    <path d="M77.93 25.4545C78.732 25.7349 79.4485 26.2125 79.9674 26.8917C80.6001 27.7197 80.8367 28.7777 80.6717 29.8021C80.4912 30.9237 79.8535 31.9859 78.899 32.6145C77.886 33.2818 76.7997 33.3496 75.6458 33.1104C74.8211 32.799 74.1494 32.4263 73.5927 31.7214C73.5526 31.6706 73.5137 31.6188 73.4762 31.5661C73.4386 31.5133 73.4025 31.4595 73.3678 31.4047C73.3331 31.3501 73.2998 31.2947 73.2679 31.2383C73.236 31.1819 73.2056 31.1248 73.1767 31.0669C73.1477 31.0089 73.1202 30.9503 73.0943 30.891C73.0683 30.8317 73.0439 30.7717 73.0211 30.7112C72.9983 30.6507 72.977 30.5895 72.9572 30.5278C72.9375 30.466 72.9194 30.4039 72.9029 30.3413C72.8864 30.2787 72.8715 30.2157 72.8581 30.1523C72.8448 30.089 72.8332 30.0253 72.8232 29.9613C72.8131 29.8974 72.8047 29.8332 72.798 29.7688C72.7914 29.7043 72.7863 29.6398 72.7828 29.5752C72.7795 29.5106 72.7778 29.4458 72.7777 29.381C72.7776 29.3163 72.7792 29.2516 72.7825 29.1868C72.7857 29.1221 72.7905 29.0576 72.7971 28.9933C72.8037 28.9289 72.812 28.8646 72.8218 28.8006C72.9816 27.6935 73.5712 26.6421 74.4977 26.0005C75.5611 25.264 76.705 25.2102 77.93 25.4545Z" fill="#22201F"/>
    <path d="M78.0302 26.161C78.5922 26.4483 79.0818 26.795 79.4491 27.3177C79.4817 27.3648 79.5131 27.4127 79.5433 27.4614C79.5734 27.5102 79.6023 27.5596 79.6299 27.6098C79.6575 27.66 79.6839 27.7108 79.7088 27.7623C79.7339 27.8139 79.7575 27.8661 79.7798 27.9188C79.8021 27.9715 79.8231 28.0248 79.8427 28.0786C79.8622 28.1325 79.8803 28.1868 79.8972 28.2416C79.914 28.2963 79.9294 28.3515 79.9434 28.4071C79.9573 28.4626 79.9698 28.5184 79.981 28.5747C79.992 28.6309 80.0016 28.6874 80.0098 28.7442C80.0179 28.8008 80.0246 28.8577 80.03 28.9148C80.0352 28.9718 80.0389 29.029 80.0412 29.0862C80.0435 29.1434 80.0443 29.2006 80.0437 29.2578C80.0431 29.3152 80.041 29.3725 80.0374 29.4297C80.0339 29.4869 80.0288 29.5439 80.0222 29.6008C80.0157 29.6577 80.0078 29.7144 79.9984 29.7709C79.989 29.8274 79.9781 29.8836 79.9658 29.9396C79.7758 30.8272 79.2276 31.6335 78.4496 32.1082C77.5688 32.6456 76.6056 32.6618 75.633 32.4009C74.9377 32.0755 74.3937 31.7158 73.9653 31.0616C73.9059 30.9713 73.8513 30.8781 73.8015 30.7821C73.7516 30.6862 73.7067 30.588 73.6668 30.4875C73.6269 30.387 73.5922 30.2848 73.5626 30.1808C73.5331 30.0768 73.509 29.9715 73.4902 29.8652C73.4713 29.7586 73.4579 29.6515 73.4499 29.5437C73.4419 29.4358 73.4394 29.3278 73.4425 29.2198C73.4455 29.1117 73.4539 29.004 73.4679 28.8969C73.4818 28.7896 73.5011 28.6834 73.5258 28.5781C73.5505 28.4679 73.5808 28.3592 73.6165 28.2521C73.6522 28.1449 73.6931 28.0399 73.7392 27.9369C73.7856 27.8339 73.8369 27.7334 73.8933 27.6355C73.9497 27.5377 74.0108 27.4429 74.0768 27.3512C74.1426 27.2594 74.2129 27.1713 74.2878 27.0867C74.3626 27.0022 74.4414 26.9215 74.5244 26.8448C74.6073 26.7681 74.6938 26.6958 74.784 26.6278C74.8742 26.5599 74.9676 26.4967 75.0641 26.4381C76.0151 25.8704 76.9967 25.8963 78.0302 26.161Z" fill="#FBEDE0"/>
    <path d="M29.1093 22.5482C29.8859 22.9184 30.5172 23.3859 30.988 24.1209C31.0257 24.1803 31.062 24.2405 31.0967 24.3017C31.1314 24.3629 31.1645 24.425 31.1961 24.4879C31.2276 24.5508 31.2575 24.6145 31.2857 24.679C31.314 24.7433 31.3407 24.8085 31.3656 24.8743C31.3906 24.9401 31.4138 25.0065 31.4354 25.0735C31.4568 25.1405 31.4766 25.208 31.4948 25.2759C31.5129 25.3439 31.5292 25.4124 31.5437 25.4812C31.5582 25.5502 31.571 25.6194 31.5821 25.6889C31.5931 25.7584 31.6024 25.8281 31.61 25.898C31.6173 25.9681 31.6229 26.0382 31.6268 26.1084C31.6306 26.1787 31.6327 26.249 31.6331 26.3194C31.6333 26.3897 31.6317 26.46 31.6284 26.5304C31.625 26.6007 31.6199 26.6709 31.613 26.7409C31.6061 26.8109 31.5973 26.8807 31.5867 26.9503C31.5762 27.0199 31.5639 27.0891 31.5498 27.158C31.5357 27.227 31.5199 27.2956 31.5024 27.3636C31.2185 28.4545 30.4527 29.3691 29.4715 29.9108C28.4488 30.4752 27.361 30.521 26.2571 30.196C25.3404 29.7892 24.5777 29.2756 24.0581 28.3871C23.4943 27.4234 23.3831 26.2374 23.6986 25.172C23.7178 25.1054 23.7388 25.0393 23.7615 24.9738C23.7842 24.9083 23.8085 24.8433 23.8346 24.779C23.8605 24.7147 23.8881 24.6512 23.9174 24.5883C23.9466 24.5255 23.9774 24.4634 24.0099 24.402C24.0423 24.3407 24.0762 24.2803 24.1117 24.2207C24.1472 24.1612 24.1842 24.1027 24.2227 24.045C24.2613 23.9873 24.3012 23.9306 24.3426 23.875C24.3839 23.8194 24.4267 23.7649 24.471 23.7114C24.5151 23.6579 24.5605 23.6056 24.6073 23.5546C24.6543 23.5035 24.7024 23.4535 24.7517 23.4049C24.8011 23.3563 24.8518 23.3089 24.9037 23.2628C24.9554 23.2167 25.0084 23.172 25.0624 23.1287C25.1166 23.0853 25.1717 23.0433 25.2279 23.0026C25.2842 22.9622 25.3414 22.9231 25.3997 22.8854C25.4579 22.8478 25.5171 22.8117 25.5771 22.777C25.6372 22.7424 25.6982 22.7094 25.7599 22.6779C26.854 22.1321 27.9765 22.1849 29.1093 22.5482Z" fill="#22201F"/>
    <path d="M28.4581 22.9882C29.1564 23.2513 29.6987 23.5583 30.1776 24.1466C30.2483 24.2329 30.3145 24.3224 30.3764 24.4153C30.4381 24.5082 30.4952 24.6039 30.5476 24.7023C30.5999 24.8009 30.6473 24.9017 30.6897 25.0049C30.7321 25.1079 30.7694 25.2129 30.8014 25.3198C30.8335 25.4266 30.8603 25.5348 30.8817 25.6443C30.9031 25.7538 30.919 25.8641 30.9295 25.9751C30.9401 26.0862 30.9452 26.1975 30.9447 26.3091C30.9442 26.4206 30.9383 26.5318 30.9268 26.6427C30.9139 26.7572 30.8953 26.8707 30.8711 26.9833C30.8469 27.0959 30.8171 27.2071 30.7817 27.3168C30.7464 27.4264 30.7057 27.534 30.6596 27.6395C30.6134 27.7452 30.5621 27.8483 30.5057 27.9487C30.4494 28.0492 30.3881 28.1466 30.3219 28.2409C30.2558 28.3352 30.1851 28.4259 30.1098 28.5131C30.0347 28.6004 29.9553 28.6838 29.8718 28.7631C29.7882 28.8423 29.7009 28.9172 29.6099 28.9879C28.6975 29.6969 27.7404 29.767 26.6428 29.6275C25.9778 29.4032 25.3897 29.0515 24.9297 28.5136C24.8595 28.4314 24.7935 28.3459 24.7318 28.2571C24.6698 28.1683 24.6125 28.0767 24.5599 27.9822C24.5072 27.8878 24.4593 27.791 24.4163 27.6918C24.3732 27.5925 24.3351 27.4914 24.302 27.3884C24.269 27.2855 24.2411 27.1811 24.2184 27.0753C24.1957 26.9696 24.1783 26.8629 24.1661 26.7555C24.154 26.648 24.1473 26.5402 24.1458 26.4321C24.1444 26.3239 24.1482 26.2159 24.1575 26.1081C24.2321 25.156 24.6988 24.2246 25.4539 23.6326C26.3639 22.9192 27.3603 22.8759 28.4581 22.9882Z" fill="#FBEDE0"/>
    <path d="M57.5146 12.9529C57.5949 12.9734 57.6747 12.9957 57.7533 13.0214C61.4581 14.2397 64.7594 17.3017 66.5407 20.7327C66.6024 20.8505 66.6626 20.9691 66.7214 21.0885C66.7802 21.2077 66.8375 21.3278 66.8933 21.4486C66.9491 21.5692 67.0035 21.6907 67.0563 21.8129C67.109 21.9349 67.1602 22.0575 67.2101 22.1809C67.2598 22.3043 67.308 22.4282 67.3547 22.5527C67.4015 22.6773 67.4466 22.8024 67.4901 22.9281C67.5337 23.0538 67.5757 23.18 67.6161 23.3066C67.6566 23.4334 67.6955 23.5605 67.7329 23.6881C67.7703 23.8158 67.806 23.9439 67.8401 24.0724C67.8742 24.201 67.9067 24.33 67.9377 24.4595C67.9686 24.5888 67.998 24.7184 68.0257 24.8485C68.0534 24.9786 68.0795 25.109 68.1041 25.2397C68.1285 25.3704 68.1514 25.5015 68.1727 25.6328C68.1939 25.7642 68.2136 25.8957 68.2315 26.0275C68.2495 26.1592 68.2659 26.2912 68.2806 26.4234C68.2954 26.5556 68.3085 26.688 68.32 26.8206C68.3313 26.953 68.3411 27.0856 68.3494 27.2183C68.3576 27.3511 68.3641 27.484 68.369 27.6169C68.3739 27.7498 68.3771 27.8828 68.3786 28.0159C68.3801 28.1488 68.3801 28.2818 68.3785 28.4148C68.3768 28.5478 68.3734 28.6807 68.3684 28.8136C68.3634 28.9466 68.3567 29.0794 68.3483 29.2122C68.3401 29.345 68.3302 29.4776 68.3185 29.61C68.307 29.7425 68.2938 29.8749 68.279 30.0071C68.2641 30.1392 68.2476 30.2712 68.2294 30.4029C68.2113 30.5347 68.1916 30.6662 68.1701 30.7975C68.1488 30.9288 68.1258 31.0598 68.1012 31.1906C68.0766 31.3213 68.0503 31.4517 68.0224 31.5817C67.9945 31.7117 67.9651 31.8414 67.934 31.9708C67.903 32.1001 67.8703 32.229 67.836 32.3575C67.8017 32.486 67.7659 32.6141 67.7284 32.7418C67.691 32.8693 67.652 32.9965 67.6115 33.1232C67.5691 33.2527 67.5251 33.3817 67.4795 33.5102C67.434 33.6388 67.3869 33.7667 67.3382 33.894C67.2894 34.0213 67.2392 34.148 67.1874 34.2741C67.1357 34.4002 67.0823 34.5256 67.0274 34.6505C66.9725 34.7752 66.9161 34.8992 66.8581 35.0226C66.8002 35.1461 66.7407 35.2688 66.6796 35.3907C66.6187 35.5126 66.5563 35.6338 66.4924 35.7542C66.4285 35.8746 66.363 35.9941 66.2962 36.113C66.2292 36.2317 66.1609 36.3496 66.0911 36.4668C66.0213 36.5838 65.9501 36.7 65.8775 36.8154C65.8048 36.9308 65.7307 37.0453 65.6552 37.1588C65.5798 37.2723 65.5029 37.3849 65.4247 37.4964C65.3465 37.6081 65.2669 37.7188 65.1859 37.8285C65.1049 37.9382 65.0226 38.0469 64.939 38.1545C64.8554 38.2621 64.7704 38.3687 64.6843 38.4742C64.598 38.5799 64.5105 38.6844 64.4217 38.7877C64.3328 38.8912 64.2427 38.9935 64.1513 39.0946C64.06 39.1958 63.9674 39.2959 63.8735 39.3949C63.7798 39.4938 63.6848 39.5915 63.5886 39.688C63.4924 39.7847 63.3951 39.8801 63.2965 39.9741C63.198 40.0684 63.0983 40.1614 62.9974 40.2531C62.8965 40.3449 62.7946 40.4354 62.6915 40.5246C62.5885 40.6138 62.4844 40.7018 62.3792 40.7885C62.2739 40.8752 62.1677 40.9606 62.0603 41.0446C61.953 41.1287 61.8446 41.2113 61.7352 41.2926C61.6259 41.3741 61.5156 41.4541 61.4043 41.5327C61.2929 41.6114 61.1806 41.6887 61.0674 41.7646C60.9542 41.8405 60.8401 41.915 60.7249 41.9882C60.6098 42.0613 60.4939 42.133 60.3772 42.2033C60.2603 42.2734 60.1426 42.3422 60.024 42.4096C59.9056 42.477 59.7863 42.5429 59.6661 42.6073C59.546 42.6717 59.4251 42.7346 59.3034 42.7961C59.1824 42.8558 59.0607 42.9141 58.9381 42.9709C58.8158 43.0277 58.6927 43.083 58.5689 43.1368C58.4451 43.1906 58.3207 43.2429 58.1957 43.2937C58.0707 43.3445 57.945 43.3938 57.8187 43.4417C57.6926 43.4894 57.5658 43.5356 57.4383 43.5804C57.3109 43.625 57.1831 43.6681 57.0546 43.7097C56.9262 43.7513 56.7973 43.7914 56.668 43.8299C56.5387 43.8683 56.4089 43.9052 56.2787 43.9404C56.1484 43.9757 56.0177 44.0095 55.8867 44.0416C55.7556 44.0738 55.6241 44.1043 55.4922 44.1332C55.3604 44.1622 55.2282 44.1895 55.0957 44.2153C54.9633 44.2411 54.8305 44.2653 54.6975 44.2878C54.5643 44.3103 54.431 44.3312 54.2975 44.3506C54.1638 44.3699 54.03 44.3875 53.896 44.4035C53.7621 44.4196 53.6279 44.4341 53.4936 44.4469C53.3591 44.4597 53.2246 44.4708 53.0899 44.4804C52.9553 44.4899 52.8206 44.4978 52.6859 44.504C52.551 44.5103 52.4161 44.515 52.2812 44.518C52.1463 44.521 52.0114 44.5224 51.8763 44.5221C51.7413 44.5218 51.6064 44.5199 51.4715 44.5165C51.3366 44.5129 51.2018 44.5077 51.0669 44.5008C50.9321 44.494 50.7974 44.4856 50.6628 44.4755C50.5282 44.4654 50.3938 44.4537 50.2595 44.4403C50.1253 44.427 49.9911 44.4121 49.8571 44.3956C49.7231 44.379 49.5894 44.3608 49.456 44.341C49.3224 44.3211 49.1891 44.2996 49.0561 44.2766C48.9233 44.2536 48.7906 44.2289 48.6582 44.2025C48.5257 44.1763 48.3937 44.1484 48.2621 44.119C48.1304 44.0895 47.999 44.0583 47.8681 44.0256C47.7372 43.993 47.6066 43.9588 47.4764 43.923C47.3462 43.8872 47.2166 43.8498 47.0875 43.8108C46.9582 43.7718 46.8295 43.7313 46.7013 43.6892C46.6628 43.6785 46.6241 43.669 46.5861 43.6574C42.9697 42.5591 39.5169 39.5776 37.6876 36.3058C37.6223 36.1906 37.5585 36.0745 37.4963 35.9576C37.4339 35.8408 37.373 35.7232 37.3137 35.6048C37.2542 35.4864 37.1963 35.3674 37.1399 35.2476C37.0835 35.1278 37.0285 35.0073 36.975 34.8861C36.9215 34.7649 36.8696 34.643 36.8193 34.5205C36.7688 34.398 36.7199 34.275 36.6726 34.1513C36.6252 34.0277 36.5793 33.9034 36.535 33.7785C36.4908 33.6538 36.4481 33.5284 36.4068 33.4025C36.3657 33.2766 36.3261 33.1502 36.2881 33.0233C36.2501 32.8965 36.2137 32.7692 36.1788 32.6415C36.144 32.5136 36.1107 32.3853 36.0791 32.2567C36.0474 32.1282 36.0173 31.9993 35.9889 31.87C35.9604 31.7406 35.9335 31.6109 35.9083 31.4808C35.8831 31.3508 35.8595 31.2205 35.8374 31.0899C35.8154 30.9593 35.795 30.8285 35.7764 30.6973C35.7576 30.5662 35.7404 30.4348 35.7249 30.3033C35.7094 30.1718 35.6956 30.0401 35.6834 29.9082C35.6712 29.7764 35.6606 29.6444 35.6517 29.5122C35.6428 29.38 35.6355 29.2477 35.6298 29.1154C35.6242 28.9832 35.6202 28.8509 35.6179 28.7184C35.6155 28.586 35.6148 28.4535 35.6157 28.3211C35.6167 28.1886 35.6193 28.0562 35.6236 27.9238C35.6278 27.7915 35.6336 27.6592 35.6412 27.527C35.6486 27.3947 35.6578 27.2626 35.6687 27.1307C35.6794 26.9986 35.6919 26.8667 35.7059 26.735C35.7201 26.6033 35.7358 26.4719 35.7531 26.3405C35.7704 26.2092 35.7894 26.0782 35.81 25.9474C35.8306 25.8165 35.8528 25.6859 35.8766 25.5557C35.9005 25.4253 35.926 25.2954 35.9531 25.1659C35.9802 25.0362 36.0088 24.9069 36.0391 24.7779C36.0694 24.6489 36.1013 24.5204 36.1348 24.3923C36.1683 24.2642 36.2034 24.1365 36.2401 24.0092C37.4526 19.7362 40.4191 16.3225 44.2808 14.201C48.3446 11.9686 53.1089 11.6673 57.5146 12.9529Z" fill="#22201F"/>
    <path d="M57.2509 13.5883C57.2699 13.5929 57.2891 13.5965 57.3078 13.6023C60.7209 14.6854 63.762 17.2595 65.5436 20.3429C67.6855 24.0503 68.2854 28.3163 67.1398 32.4542C66.0241 36.4847 63.1426 39.9197 59.5024 41.9428C55.5689 44.1292 51.0792 44.2555 46.8214 43.046C43.2152 41.6407 40.2734 39.4153 38.3196 36.0234C38.2565 35.9138 38.1949 35.8035 38.1347 35.6923C38.0744 35.5813 38.0155 35.4695 37.9581 35.357C37.9006 35.2445 37.8445 35.1313 37.7898 35.0174C37.7352 34.9034 37.6819 34.7888 37.6301 34.6736C37.5783 34.5583 37.5279 34.4424 37.4789 34.3259C37.43 34.2094 37.3826 34.0924 37.3365 33.9747C37.2905 33.857 37.246 33.7387 37.2028 33.6199C37.1597 33.5011 37.1181 33.3818 37.078 33.2621C37.0378 33.1422 36.9992 33.0218 36.962 32.9011C36.925 32.7803 36.8894 32.659 36.8553 32.5373C36.8211 32.4157 36.7884 32.2937 36.7573 32.1711C36.7262 32.0486 36.6967 31.9258 36.6686 31.8026C36.6406 31.6794 36.6141 31.5558 36.5891 31.432C36.5641 31.308 36.5407 31.1838 36.5188 31.0593C36.497 30.9349 36.4767 30.8102 36.458 30.6853C36.4392 30.5603 36.4219 30.4352 36.4063 30.3099C36.3906 30.1844 36.3764 30.0588 36.3638 29.933C36.3513 29.8073 36.3404 29.6815 36.3309 29.5553C36.3216 29.4294 36.3137 29.3033 36.3073 29.177C36.3011 29.0509 36.2963 28.9246 36.2932 28.7982C36.2901 28.6719 36.2886 28.5456 36.2885 28.4193C36.2885 28.2929 36.2901 28.1665 36.2932 28.0401C36.2963 27.9138 36.301 27.7875 36.3073 27.6613C36.3135 27.5351 36.3213 27.409 36.3307 27.2829C36.3401 27.1569 36.3511 27.0311 36.3637 26.9053C36.3762 26.7796 36.3904 26.654 36.4061 26.5286C36.4217 26.4032 36.4388 26.2781 36.4576 26.1532C36.4764 26.0282 36.4968 25.9034 36.5187 25.7789C36.5405 25.6545 36.5639 25.5304 36.5888 25.4065C36.6137 25.2826 36.6402 25.1591 36.6682 25.0358C36.6963 24.9126 36.7258 24.7897 36.7568 24.6672C36.788 24.5448 36.8206 24.4227 36.8547 24.301C37.9704 20.2141 40.6967 16.9489 44.3753 14.8872C48.344 12.6629 52.9107 12.3579 57.2509 13.5883Z" fill="#FBEDE0"/>
    <path d="M57.21 15.3995C57.392 15.4705 57.5724 15.5453 57.7511 15.6239C57.93 15.7026 58.1071 15.7851 58.2824 15.8712C58.4577 15.9575 58.6311 16.0473 58.8026 16.1408C58.9741 16.2344 59.1435 16.3316 59.3108 16.4322C59.4781 16.533 59.6433 16.6373 59.8062 16.745C59.9692 16.8528 60.1297 16.964 60.2879 17.0786C60.4462 17.1931 60.6019 17.311 60.755 17.4323C60.9082 17.5535 61.0588 17.6779 61.2067 17.8055C61.3546 17.9331 61.4998 18.0638 61.6421 18.1976C61.7844 18.3313 61.9239 18.468 62.0605 18.6078C62.1969 18.7475 62.3304 18.89 62.4609 19.0354C62.5915 19.1808 62.7188 19.3289 62.8429 19.4797C62.9671 19.6305 63.088 19.7838 63.2057 19.9397C63.3235 20.0956 63.4378 20.254 63.5486 20.4149C63.6596 20.5756 63.7672 20.7387 63.8711 20.9041C63.9751 21.0694 64.0756 21.2369 64.1724 21.4065C64.2857 21.6005 64.394 21.7972 64.4972 21.9967C64.6007 22.196 64.6991 22.3979 64.7924 22.6023C64.8855 22.8067 64.9735 23.0133 65.0563 23.2221C65.1392 23.4309 65.2168 23.6416 65.2892 23.8542C65.3615 24.0669 65.4284 24.2812 65.49 24.4972C65.5515 24.7133 65.6076 24.9308 65.6583 25.1496C65.7089 25.3685 65.7539 25.5885 65.7935 25.8095C65.8331 26.0307 65.8671 26.2527 65.8956 26.4756C65.924 26.6983 65.9468 26.9217 65.9641 27.1457C65.9814 27.3696 65.993 27.5939 65.9989 27.8184C66.0049 28.043 66.0052 28.2676 65.9999 28.4922C65.9946 28.7168 65.9837 28.9411 65.9671 29.1651C65.9506 29.389 65.9285 29.6126 65.9007 29.8356C65.8729 30.0584 65.8395 30.2805 65.8007 30.5018C65.7617 30.7229 65.7173 30.943 65.6674 31.162C65.6173 31.3811 65.5619 31.5987 65.5011 31.8149C64.4856 35.5508 62.1238 38.4667 58.7636 40.3573C55.1109 42.4124 51.2121 42.4432 47.2602 41.3206C43.831 39.9527 41.0269 37.6968 39.4214 34.3058C39.3242 34.1041 39.2322 33.9 39.1452 33.6937C39.0582 33.4874 38.9764 33.2791 38.8996 33.0687C38.823 32.8584 38.7515 32.6462 38.6852 32.4323C38.619 32.2184 38.5581 32.003 38.5025 31.7862C38.4468 31.5692 38.3966 31.3511 38.3518 31.1317C38.3069 30.9124 38.2675 30.692 38.2335 30.4707C38.1995 30.2494 38.171 30.0274 38.148 29.8048C38.1249 29.582 38.1073 29.3588 38.0953 29.1353C38.0834 28.9117 38.0769 28.688 38.0759 28.4641C38.0749 28.2402 38.0794 28.0164 38.0894 27.7927C38.0997 27.569 38.1153 27.3457 38.1362 27.1228C38.1574 26.8999 38.184 26.6776 38.216 26.456C38.2481 26.2345 38.2856 26.0138 38.3286 25.794C38.3715 25.5742 38.4198 25.3557 38.4735 25.1384C38.5273 24.9209 38.5864 24.705 38.6508 24.4907C38.7152 24.2762 38.7848 24.0634 38.8598 23.8524C38.9361 23.6373 39.0177 23.4243 39.1046 23.2132C39.1913 23.0021 39.2833 22.7933 39.3804 22.5868C39.4776 22.3802 39.5798 22.1762 39.6868 21.9747C39.7941 21.7732 39.9062 21.5745 40.0232 21.3784C40.1402 21.1825 40.2619 20.9895 40.3884 20.7995C40.5149 20.6096 40.646 20.4228 40.7816 20.2393C40.9173 20.0557 41.0575 19.8757 41.2021 19.699C41.3466 19.5224 41.4954 19.3495 41.6485 19.1803C41.8016 19.011 41.9589 18.8456 42.1202 18.684C42.2814 18.5224 42.4465 18.365 42.6155 18.2117C42.7845 18.0582 42.9572 17.9091 43.1336 17.7644C43.3099 17.6194 43.4897 17.479 43.673 17.343C43.8564 17.207 44.043 17.0756 44.2328 16.9487C44.4224 16.822 44.6152 16.6999 44.8111 16.5826C45.0069 16.4653 45.2054 16.3528 45.4067 16.2454C45.608 16.1379 45.8119 16.0354 46.0182 15.9378C46.2345 15.8344 46.4532 15.7363 46.6744 15.6435C46.8956 15.5509 47.1189 15.4638 47.3442 15.3822C47.5697 15.3007 47.7972 15.2249 48.0265 15.1548C48.2557 15.0846 48.4866 15.0201 48.7191 14.9614C48.9516 14.9027 49.1854 14.8498 49.4206 14.8028C49.6556 14.7558 49.8917 14.7146 50.129 14.6793C50.3661 14.6441 50.604 14.6147 50.8425 14.5913C51.0812 14.5679 51.3203 14.5504 51.5598 14.5388C51.7992 14.5273 52.0388 14.5218 52.2786 14.5221C52.5184 14.5225 52.758 14.529 52.9975 14.5414C53.237 14.5536 53.476 14.5719 53.7145 14.5962C53.9531 14.6205 54.1909 14.6507 54.4278 14.6868C54.6649 14.7229 54.9009 14.7649 55.1358 14.8127C55.3709 14.8607 55.6045 14.9144 55.8368 14.9738C56.069 15.0334 56.2996 15.0986 56.5286 15.1697C56.7577 15.2406 56.9848 15.3172 57.21 15.3995Z" fill="#22201F"/>
    <path d="M56.8812 16.0047C59.914 17.0481 62.4072 19.4415 63.8673 22.2683C65.4394 25.3119 65.7914 28.797 64.7436 32.0727C63.6348 35.538 61.3134 38.3305 58.0692 39.986C54.7022 41.7043 50.9582 41.8222 47.395 40.6551C44.2647 39.6308 41.6731 37.1593 40.1821 34.2619C40.0843 34.0734 39.9912 33.8826 39.9029 33.6894C39.8144 33.4963 39.7309 33.3011 39.6524 33.1038C39.5738 32.9065 39.5001 32.7073 39.4313 32.5063C39.3626 32.3053 39.2989 32.1028 39.2403 31.8987C39.1818 31.6946 39.1284 31.4891 39.08 31.2822C39.0317 31.0754 38.9885 30.8676 38.9504 30.6587C38.9125 30.4496 38.8798 30.2398 38.8522 30.0292C38.8247 29.8186 38.8024 29.6075 38.7853 29.3957C38.7684 29.184 38.7567 28.972 38.7503 28.7597C38.7439 28.5474 38.7428 28.3351 38.7469 28.1229C38.7511 27.9105 38.7606 27.6984 38.7753 27.4865C38.79 27.2746 38.81 27.0632 38.8353 26.8524C38.8606 26.6415 38.8912 26.4313 38.9269 26.222C38.9627 26.0126 39.0036 25.8043 39.0496 25.597C39.0958 25.3897 39.1471 25.1837 39.2036 24.979C39.2599 24.7741 39.3214 24.5709 39.388 24.3692C39.4559 24.1593 39.529 23.9511 39.6074 23.7448C39.6859 23.5385 39.7695 23.3343 39.8582 23.1323C39.947 22.9302 40.0408 22.7306 40.1396 22.5334C40.2384 22.336 40.3422 22.1413 40.4509 21.9492C40.5595 21.7571 40.6729 21.5679 40.7911 21.3816C40.9094 21.1952 41.0323 21.012 41.1598 20.8318C41.2873 20.6518 41.4193 20.4751 41.5557 20.3016C41.6921 20.1281 41.8328 19.9582 41.9779 19.7919C42.1229 19.6256 42.272 19.4631 42.4253 19.3042C42.5786 19.1455 42.7358 18.9907 42.8969 18.8397C43.0579 18.6889 43.2227 18.5423 43.3912 18.3998C43.5598 18.2573 43.7318 18.1191 43.9072 17.9852C44.0827 17.8515 44.2615 17.7222 44.4436 17.5974C44.6256 17.4727 44.8106 17.3526 44.9987 17.2372C45.1868 17.1217 45.3777 17.0111 45.5714 16.9053C45.765 16.7996 45.9613 16.6988 46.16 16.6029C49.5613 14.9331 53.3147 14.783 56.8812 16.0047Z" fill="#FBEDE0"/>
    <path d="M52.8592 18.7293L53.0503 18.8642C53.2703 19.2997 53.1791 19.9321 53.1682 20.4157C54.2633 20.6427 55.4214 20.9978 56.317 21.692C57.0051 22.2254 57.4745 22.9986 57.5468 23.8765C57.5996 24.517 57.3291 25.2648 56.9209 25.751C56.7531 25.8265 56.758 25.857 56.5689 25.8128C55.9745 25.278 56.6586 23.7675 55.9839 22.7479C55.3756 21.8288 54.1175 21.4115 53.0862 21.213C52.7709 23.3156 52.7888 25.5379 52.6902 27.6623C53.6994 28.0154 54.7443 28.367 55.626 28.9873C56.4828 29.5902 57.1523 30.4755 57.3154 31.5285C57.4538 32.4225 57.1525 33.2754 56.6157 33.9854C55.5484 35.3972 53.8306 35.9295 52.161 36.1887L52.0007 37.4884C51.8148 37.5351 51.7199 37.5206 51.5331 37.4968C51.3117 37.1194 51.4277 36.5789 51.4565 36.1488C51.3108 36.1366 51.1655 36.1212 51.0206 36.1026C49.6242 35.9187 48.1229 35.3154 47.2796 34.1391C46.8113 33.486 46.6957 32.8556 46.8233 32.0713C46.9775 31.8852 46.964 31.891 47.2035 31.8615C47.584 32.181 47.6899 33.3263 48.0901 33.8861C48.9034 35.0246 50.1709 35.3343 51.4716 35.5411C51.7539 33.3216 51.7408 31.0068 51.8987 28.7684C50.7743 28.3633 49.565 27.9482 48.6129 27.2045C47.8763 26.6292 47.2128 25.7971 47.108 24.8398C47.0137 23.9763 47.3647 23.1191 47.9038 22.4579C49.0077 21.1045 50.7089 20.6215 52.3741 20.4844C52.3791 20.2709 52.3875 20.0576 52.3992 19.8444C52.4282 19.3333 52.4644 19.0779 52.8592 18.7293Z" fill="#22201F"/>
    <path d="M52.3508 21.2548C52.4083 22.0486 52.2382 22.9695 52.1737 23.7722C52.074 25.017 52.0029 26.2635 51.9603 27.5115C51.1756 27.2224 50.4286 26.9251 49.6959 26.5195L49.5723 26.4134C49.0101 25.9374 48.5339 25.4646 48.4063 24.7058C48.3059 24.1081 48.5064 23.5316 48.8593 23.0524C49.6743 21.9454 51.042 21.4438 52.3508 21.2548Z" fill="#FBEDE0"/>
    <path d="M52.858 29.0449C53.9915 29.4402 55.2253 29.9348 55.8209 31.0573C55.8605 31.1311 55.8961 31.2067 55.9278 31.2841C55.9594 31.3616 55.9868 31.4406 56.01 31.521C56.0332 31.6015 56.0521 31.6829 56.0666 31.7654C56.0811 31.8478 56.0913 31.9308 56.0971 32.0143C56.1028 32.0979 56.1041 32.1815 56.1009 32.2651C56.0977 32.3487 56.0901 32.432 56.0781 32.5148C56.0661 32.5977 56.0497 32.6798 56.0291 32.7609C56.0084 32.842 55.9834 32.9218 55.9542 33.0002C55.5899 33.9998 54.7127 34.5996 53.7873 35.0237C53.257 35.214 52.7543 35.326 52.2015 35.4225C52.2709 34.1049 52.2941 30.0727 52.6586 29.073L52.858 29.0449Z" fill="#FBEDE0"/>
  </g>
  <defs>
    <clipPath id="clip0_750_9703">
      <rect width="103" height="56" fill="white" transform="translate(0.5)"/>
    </clipPath>
  </defs>
</svg>