<svg t="1736910290030" class="icon" viewBox="0 0 1024 1024" version="1.1" xmlns="http://www.w3.org/2000/svg" p-id="8830" width="64" height="64"><path d="M512 512m-512 0a512 512 0 1 0 1024 0 512 512 0 1 0-1024 0Z" fill="#EED3C0" p-id="8831"></path><path d="M481.7 1024c-26-5.5-52.4-9.9-78-16.7C212.9 957 79.7 777.2 88.8 582.9c9.3-200.5 156-367.7 351.7-400.9 230.4-39.1 450.3 116.4 489.2 345.8 38.9 229.6-116.4 448.6-346.6 488.6-13.5 2.3-26.9 5-40.4 7.6h-61z m70.5-477.8c-2.8 1-5.7 2-8.5 3.1-5-7.6-10-15.3-15.1-22.8-31.5-45.8-71.2-81.6-121.9-105.8-32.2-15.4-57.6-12.3-85.3 11.5-83.7 71.8-123.3 162.7-129.6 271.6-3.5 61.8 11.8 112 56.5 157.6 147.6 150.5 423.1 175.7 592.1-64.3 5.4-7.7 7.2-21.2 4.9-30.6C806.7 613 717.6 502.6 567.4 445.6c-18.5-7-37.8-11.9-58.1-18.1 15.2 42 29 80.3 42.9 118.7z" fill="#424E69" p-id="8832"></path></svg>