<?xml version="1.0" standalone="no"?><!DOCTYPE svg PUBLIC "-//W3C//DTD SVG 1.1//EN" "http://www.w3.org/Graphics/SVG/1.1/DTD/svg11.dtd"><svg t="1736244280516" class="icon" viewBox="0 0 1024 1024" version="1.1" xmlns="http://www.w3.org/2000/svg" p-id="11311" xmlns:xlink="http://www.w3.org/1999/xlink" width="64" height="64"><path d="M502.454857 63.122286c125.878857 0 227.913143 100.388571 227.913143 224.182857 0 123.867429-102.034286 224.256-227.913143 224.256-125.915429 0-227.949714-100.388571-227.949714-224.219429 0-123.867429 102.070857-224.182857 227.949714-224.182857z m0 0c125.878857 0 227.913143 100.388571 227.913143 224.182857 0 123.867429-102.034286 224.256-227.913143 224.256-125.915429 0-227.949714-100.388571-227.949714-224.219429 0-123.867429 102.070857-224.182857 227.949714-224.182857zM416.914286 586.313143h189.988571c162.633143 0 294.436571 129.609143 294.436572 289.609143v18.651428c0 63.012571-131.84 65.462857-294.4 65.462857H416.914286c-162.596571 0-294.4-0.146286-294.4-65.462857v-18.651428c0-160 131.803429-289.645714 294.4-289.645715z" fill="#484848" p-id="11312"></path></svg>